{"glyphs":{"0":{"ha":696,"x_min":51,"x_max":644,"o":"m 401 204 l 401 688 q 367 718 401 718 l 329 718 q 294 688 294 718 l 294 204 q 329 174 294 174 l 367 174 q 401 204 401 174 m 644 719 l 644 172 q 440 0 644 0 l 256 0 q 51 172 51 0 l 51 719 q 256 892 51 892 l 440 892 q 644 719 644 892 z "},"1":{"ha":449,"x_min":25,"x_max":393,"o":"m 393 892 l 393 0 l 150 0 l 150 718 l 25 718 l 25 892 l 393 892 z "},"2":{"ha":651,"x_min":32,"x_max":611,"o":"m 275 688 l 275 586 l 32 586 l 32 719 q 236 892 32 892 l 404 892 q 611 719 611 892 l 611 592 q 588 473 611 522 q 514 367 565 424 l 342 174 l 611 174 l 611 0 l 39 0 l 39 158 l 303 442 q 358 516 344 485 q 372 593 372 547 l 372 688 q 338 718 372 718 l 310 718 q 275 688 275 718 z "},"3":{"ha":663,"x_min":35,"x_max":614,"o":"m 278 688 l 278 600 l 35 600 l 35 719 q 239 892 35 892 l 410 892 q 614 719 614 892 l 614 611 q 547 454 614 490 q 600 403 586 438 q 614 311 614 369 l 614 172 q 410 0 614 0 l 239 0 q 35 172 35 0 l 35 292 l 278 292 l 278 204 q 313 174 278 174 l 340 174 q 375 204 375 174 l 375 342 q 340 372 375 372 l 228 372 l 228 532 l 340 532 q 375 563 375 532 l 375 688 q 340 718 375 718 l 313 718 q 278 688 278 718 z "},"4":{"ha":704,"x_min":14,"x_max":704,"o":"m 704 336 l 704 160 l 610 160 l 610 0 l 382 0 l 382 160 l 14 160 l 14 375 l 349 892 l 593 892 l 235 336 l 382 336 l 382 513 l 610 513 l 610 336 l 704 336 z "},"5":{"ha":692,"x_min":56,"x_max":650,"o":"m 306 588 l 446 588 q 650 415 650 588 l 650 172 q 446 0 650 0 l 260 0 q 56 172 56 0 l 56 313 l 299 313 l 299 204 q 333 174 299 174 l 376 174 q 411 204 411 174 l 411 383 q 376 414 411 414 l 67 414 l 67 892 l 636 892 l 636 718 l 306 718 l 306 588 z "},"6":{"ha":686,"x_min":51,"x_max":644,"o":"m 288 535 l 440 535 q 644 363 644 535 l 644 172 q 440 0 644 0 l 256 0 q 51 172 51 0 l 51 719 q 256 892 51 892 l 426 892 q 631 719 631 892 l 631 619 l 394 619 l 394 688 q 360 718 394 718 l 322 718 q 288 688 288 718 l 288 535 m 408 204 l 408 338 q 374 368 408 368 l 288 368 l 288 204 q 322 174 288 174 l 374 174 q 408 204 408 174 z "},"7":{"ha":586,"x_min":14,"x_max":579,"o":"m 579 892 l 579 760 l 308 0 l 57 0 l 319 704 l 14 704 l 14 892 l 579 892 z "},"8":{"ha":692,"x_min":49,"x_max":643,"o":"m 643 719 l 643 611 q 576 454 643 490 q 629 403 615 438 q 643 311 643 369 l 643 172 q 439 0 643 0 l 253 0 q 49 172 49 0 l 49 311 q 114 454 49 425 q 49 611 49 490 l 49 719 q 253 892 49 892 l 439 892 q 643 719 643 892 m 411 201 l 411 349 q 376 379 411 379 l 315 379 q 281 349 281 379 l 281 201 q 315 171 281 171 l 376 171 q 411 201 411 171 m 411 556 l 411 690 q 376 721 411 721 l 315 721 q 281 690 281 721 l 281 556 q 315 525 281 525 l 376 525 q 411 556 411 525 z "},"9":{"ha":686,"x_min":42,"x_max":635,"o":"m 246 892 l 431 892 q 635 719 635 892 l 635 172 q 431 0 635 0 l 257 0 q 53 172 53 0 l 53 265 l 289 265 l 289 204 q 324 174 289 174 l 364 174 q 399 204 399 174 l 399 343 l 246 343 q 42 515 42 343 l 42 719 q 246 892 42 892 m 313 503 l 399 503 l 399 688 q 364 718 399 718 l 313 718 q 278 688 278 718 l 278 533 q 313 503 278 503 z "},"\u0000":{"ha":0,"x_min":0,"x_max":0,"o":""},"\r":{"ha":0,"x_min":0,"x_max":0,"o":""}," ":{"ha":278,"x_min":0,"x_max":0,"o":""},"!":{"ha":413,"x_min":69,"x_max":343,"o":"m 86 0 l 86 228 l 325 228 l 325 0 l 86 0 m 69 892 l 343 892 l 301 324 l 111 324 l 69 892 z "},"\"":{"ha":603,"x_min":56,"x_max":547,"o":"m 335 892 l 547 892 l 547 522 l 335 522 l 335 892 m 56 892 l 268 892 l 268 522 l 56 522 l 56 892 z "},"#":{"ha":942,"x_min":42,"x_max":900,"o":"m 900 540 l 764 540 l 721 350 l 835 350 l 835 197 l 686 197 l 642 0 l 440 0 l 485 197 l 346 197 l 301 0 l 99 0 l 143 197 l 42 197 l 42 350 l 178 350 l 221 540 l 107 540 l 107 693 l 256 693 l 300 890 l 501 890 l 457 693 l 596 693 l 640 890 l 843 890 l 799 693 l 900 693 l 900 540 m 519 350 l 561 540 l 422 540 l 381 350 l 519 350 z "},"$":{"ha":682,"x_min":42,"x_max":640,"o":"m 319 525 l 450 525 q 597 482 553 525 q 640 356 640 439 l 640 172 q 456 0 640 7 l 456 -117 l 225 -117 l 225 0 q 44 172 44 10 l 44 279 l 288 279 l 288 204 q 322 174 288 174 l 363 174 q 397 204 397 174 l 397 331 q 363 361 397 361 l 229 361 q 84 406 126 361 q 42 536 42 451 l 42 719 q 225 892 42 883 l 225 1010 l 456 1010 l 456 892 q 638 719 638 882 l 638 613 l 394 613 l 394 688 q 360 718 394 718 l 319 718 q 285 688 285 718 l 285 556 q 319 525 285 525 z "},"%":{"ha":1247,"x_min":35,"x_max":1213,"o":"m 789 892 l 965 892 l 461 0 l 288 0 l 789 892 m 1017 167 l 1017 365 q 989 390 1017 390 l 967 390 q 939 365 939 390 l 939 167 q 967 143 939 143 l 989 143 q 1017 167 1017 143 m 308 526 l 308 725 q 281 750 308 750 l 258 750 q 231 725 231 750 l 231 526 q 258 503 231 503 l 281 503 q 308 526 308 503 m 1213 393 l 1213 139 q 1049 0 1213 0 l 907 0 q 743 139 743 0 l 743 393 q 907 532 743 532 l 1049 532 q 1213 393 1213 532 m 504 753 l 504 499 q 340 360 504 360 l 199 360 q 35 499 35 360 l 35 753 q 199 892 35 892 l 340 892 q 504 753 504 892 z "},"&":{"ha":868,"x_min":42,"x_max":919,"o":"m 629 0 l 246 0 q 42 172 42 0 l 42 253 q 69 360 42 322 q 172 439 96 397 l 194 451 l 189 458 q 113 551 133 517 q 92 625 92 585 l 92 719 q 296 892 92 892 l 458 892 q 658 719 658 892 l 658 625 q 625 508 658 549 q 490 408 588 464 l 638 251 l 638 349 l 829 349 l 829 172 q 803 75 829 114 l 919 -50 l 678 -50 l 629 0 m 328 706 l 328 615 q 360 546 328 579 q 415 582 400 568 q 429 621 429 596 l 429 706 q 394 736 429 736 l 363 736 q 328 706 328 736 m 306 160 l 476 160 l 326 315 l 303 301 q 271 249 271 282 l 271 190 q 306 160 271 160 z "},"'":{"ha":338,"x_min":56,"x_max":282,"o":"m 56 892 l 282 892 l 282 522 l 56 522 l 56 892 z "},"(":{"ha":468,"x_min":56,"x_max":454,"o":"m 56 690 q 156 1007 56 897 q 442 1117 257 1117 l 454 1117 l 454 915 l 442 915 q 299 694 299 915 l 299 192 q 442 -29 299 -29 l 454 -29 l 454 -231 l 442 -231 q 156 -121 257 -231 q 56 196 56 -11 l 56 690 z "},")":{"ha":468,"x_min":14,"x_max":413,"o":"m 413 196 q 312 -121 413 -11 q 26 -231 211 -231 l 14 -231 l 14 -29 l 26 -29 q 169 192 169 -29 l 169 694 q 26 915 169 915 l 14 915 l 14 1117 l 26 1117 q 312 1007 211 1117 q 413 690 413 897 l 413 196 z "},"*":{"ha":542,"x_min":25,"x_max":518,"o":"m 185 869 l 185 892 l 358 892 l 358 868 q 343 761 358 807 q 465 815 390 792 l 518 651 q 389 624 451 626 q 465 543 431 592 l 479 525 l 339 424 q 272 540 294 479 q 206 422 256 488 l 65 524 q 156 622 114 590 q 25 650 100 625 l 79 814 q 200 760 151 792 q 185 869 185 814 z "},"+":{"ha":713,"x_min":21,"x_max":692,"o":"m 692 531 l 692 357 l 469 357 l 469 142 l 243 142 l 243 357 l 21 357 l 21 531 l 243 531 l 243 746 l 469 746 l 469 531 l 692 531 z "},",":{"ha":350,"x_min":56,"x_max":294,"o":"m 56 228 l 294 228 l 294 103 l 128 -207 l 56 -207 l 56 228 z "},"-":{"ha":476,"x_min":28,"x_max":449,"o":"m 28 340 l 28 500 l 449 500 l 449 340 l 28 340 z "},".":{"ha":350,"x_min":56,"x_max":294,"o":"m 56 0 l 56 228 l 294 228 l 294 0 l 56 0 z "},"/":{"ha":571,"x_min":-28,"x_max":599,"o":"m 399 975 l 599 975 l 172 -83 l -28 -83 l 399 975 z "},":":{"ha":350,"x_min":56,"x_max":294,"o":"m 56 0 l 56 228 l 294 228 l 294 0 l 56 0 m 56 465 l 56 693 l 294 693 l 294 465 l 56 465 z "},";":{"ha":350,"x_min":56,"x_max":294,"o":"m 56 465 l 56 693 l 294 693 l 294 465 l 56 465 m 56 228 l 294 228 l 294 103 l 128 -207 l 56 -207 l 56 228 z "},"<":{"ha":740,"x_min":35,"x_max":706,"o":"m 706 558 l 268 449 l 706 336 l 706 147 l 35 350 l 35 553 l 706 744 l 706 558 z "},"=":{"ha":740,"x_min":35,"x_max":706,"o":"m 35 207 l 35 386 l 706 386 l 706 207 l 35 207 m 35 501 l 35 681 l 706 681 l 706 501 l 35 501 z "},">":{"ha":740,"x_min":35,"x_max":706,"o":"m 472 449 l 35 558 l 35 744 l 706 553 l 706 350 l 35 147 l 35 336 l 472 449 z "},"?":{"ha":651,"x_min":28,"x_max":624,"o":"m 232 892 l 419 892 q 624 719 624 892 l 624 581 q 425 408 624 410 l 417 324 l 214 324 l 193 536 l 346 536 q 381 567 381 536 l 381 701 q 346 732 381 732 l 306 732 q 271 701 271 732 l 271 607 l 28 607 l 28 719 q 232 892 28 892 m 193 0 l 193 228 l 432 228 l 432 0 l 193 0 z "},"@":{"ha":1199,"x_min":56,"x_max":1135,"o":"m 546 433 l 546 285 q 576 257 546 257 l 611 257 q 644 294 644 257 l 644 424 q 611 461 644 461 l 576 461 q 546 433 546 461 m 343 450 q 511 607 343 607 l 533 607 q 649 526 628 607 l 649 607 l 836 607 l 836 256 l 897 256 q 932 286 932 256 l 932 668 q 897 699 932 699 l 299 699 q 264 668 264 699 l 264 46 q 299 15 264 15 l 838 15 l 838 -144 l 240 -144 q 56 28 56 -144 l 56 686 q 240 858 56 858 l 953 858 q 1135 686 1135 858 l 1135 283 q 950 111 1135 111 l 650 111 l 650 196 q 533 111 632 111 l 511 111 q 343 268 343 111 l 343 450 z "},"A":{"ha":754,"x_min":0,"x_max":754,"o":"m 510 0 l 482 133 l 268 133 l 239 0 l 0 0 l 229 892 l 525 892 l 754 0 l 510 0 m 306 306 l 444 306 l 376 626 l 306 306 z "},"B":{"ha":717,"x_min":56,"x_max":668,"o":"m 429 557 l 429 701 q 394 732 429 732 l 294 732 l 294 526 l 394 526 q 429 557 429 526 m 429 190 l 429 336 q 394 367 429 367 l 294 367 l 294 160 l 394 160 q 429 190 429 160 m 56 892 l 464 892 q 668 719 668 892 l 668 606 q 601 449 668 485 q 654 398 640 432 q 668 306 668 364 l 668 172 q 464 0 668 0 l 56 0 l 56 892 z "},"C":{"ha":688,"x_min":49,"x_max":653,"o":"m 653 558 l 410 558 l 410 701 q 375 732 410 732 l 326 732 q 292 701 292 732 l 292 190 q 326 160 292 160 l 375 160 q 410 190 410 160 l 410 328 l 653 328 l 653 172 q 449 0 653 0 l 253 0 q 49 172 49 0 l 49 719 q 253 892 49 892 l 449 892 q 653 719 653 892 l 653 558 z "},"D":{"ha":735,"x_min":69,"x_max":683,"o":"m 69 892 l 479 892 q 683 719 683 892 l 683 172 q 479 0 683 0 l 69 0 l 69 892 m 440 190 l 440 701 q 406 732 440 732 l 313 732 l 313 160 l 406 160 q 440 190 440 160 z "},"E":{"ha":624,"x_min":56,"x_max":603,"o":"m 299 174 l 603 174 l 603 0 l 56 0 l 56 892 l 590 892 l 590 718 l 299 718 l 299 536 l 550 536 l 550 363 l 299 363 l 299 174 z "},"F":{"ha":611,"x_min":56,"x_max":590,"o":"m 590 718 l 299 718 l 299 501 l 551 501 l 551 342 l 299 342 l 299 0 l 56 0 l 56 892 l 590 892 l 590 718 z "},"G":{"ha":696,"x_min":49,"x_max":654,"o":"m 654 586 l 411 586 l 411 701 q 376 732 411 732 l 326 732 q 292 701 292 732 l 292 190 q 326 160 292 160 l 376 160 q 411 190 411 160 l 411 339 l 342 339 l 342 493 l 654 493 l 654 172 q 450 0 654 0 l 253 0 q 49 172 49 0 l 49 719 q 253 892 49 892 l 450 892 q 654 719 654 892 l 654 586 z "},"H":{"ha":764,"x_min":56,"x_max":708,"o":"m 469 892 l 708 892 l 708 0 l 469 0 l 469 353 l 294 353 l 294 0 l 56 0 l 56 892 l 294 892 l 294 526 l 469 526 l 469 892 z "},"I":{"ha":354,"x_min":56,"x_max":299,"o":"m 56 892 l 299 892 l 299 0 l 56 0 l 56 892 z "},"J":{"ha":635,"x_min":14,"x_max":585,"o":"m 14 357 l 257 357 l 257 204 q 292 174 257 174 l 307 174 q 342 204 342 174 l 342 892 l 585 892 l 585 172 q 381 0 585 0 l 218 0 q 14 172 14 0 l 14 357 z "},"K":{"ha":736,"x_min":56,"x_max":728,"o":"m 553 456 l 728 0 l 467 0 l 300 456 l 465 892 l 726 892 l 553 456 m 56 0 l 56 892 l 299 892 l 299 0 l 56 0 z "},"L":{"ha":575,"x_min":56,"x_max":575,"o":"m 299 174 l 575 174 l 575 0 l 56 0 l 56 892 l 299 892 l 299 174 z "},"M":{"ha":931,"x_min":56,"x_max":875,"o":"m 272 0 l 56 0 l 56 892 l 321 892 l 465 415 l 610 892 l 875 892 l 875 0 l 660 0 l 660 567 l 549 193 l 382 193 l 272 564 l 272 0 z "},"N":{"ha":740,"x_min":56,"x_max":685,"o":"m 463 892 l 685 892 l 685 0 l 476 0 l 278 468 l 278 0 l 56 0 l 56 892 l 264 892 l 463 415 l 463 892 z "},"O":{"ha":717,"x_min":51,"x_max":665,"o":"m 256 892 l 461 892 q 665 719 665 892 l 665 172 q 461 0 665 0 l 256 0 q 51 172 51 0 l 51 719 q 256 892 51 892 m 422 204 l 422 688 q 388 718 422 718 l 329 718 q 294 688 294 718 l 294 204 q 329 174 294 174 l 388 174 q 422 204 422 174 z "},"P":{"ha":700,"x_min":56,"x_max":672,"o":"m 56 892 l 468 892 q 672 719 672 892 l 672 464 q 468 292 672 292 l 299 292 l 299 0 l 56 0 l 56 892 m 429 496 l 429 688 q 394 718 429 718 l 299 718 l 299 465 l 394 465 q 429 496 429 465 z "},"Q":{"ha":717,"x_min":51,"x_max":743,"o":"m 256 0 q 51 172 51 0 l 51 719 q 256 892 51 892 l 461 892 q 665 719 665 892 l 665 172 q 614 43 665 86 l 743 -94 l 467 -94 l 379 0 l 256 0 m 294 688 l 294 204 q 329 174 294 174 l 388 174 q 422 204 422 174 l 422 688 q 388 718 422 718 l 329 718 q 294 688 294 718 z "},"R":{"ha":714,"x_min":56,"x_max":717,"o":"m 299 317 l 299 0 l 56 0 l 56 892 l 468 892 q 672 719 672 892 l 672 489 q 553 326 672 357 l 717 0 l 456 0 l 314 317 l 299 317 m 394 718 l 299 718 l 299 482 l 394 482 q 429 513 429 482 l 429 688 q 394 718 429 718 z "},"S":{"ha":682,"x_min":42,"x_max":640,"o":"m 397 204 l 397 331 q 363 361 397 361 l 229 361 q 84 406 126 361 q 42 536 42 451 l 42 719 q 244 892 42 892 l 435 892 q 638 719 638 892 l 638 613 l 394 613 l 394 688 q 360 718 394 718 l 319 718 q 285 688 285 718 l 285 556 q 319 525 285 525 l 450 525 q 597 482 553 525 q 640 356 640 439 l 640 172 q 438 0 640 0 l 249 0 q 44 172 44 0 l 44 279 l 288 279 l 288 204 q 322 174 288 174 l 363 174 q 397 204 397 174 z "},"T":{"ha":600,"x_min":7,"x_max":593,"o":"m 593 892 l 593 718 l 421 718 l 421 0 l 178 0 l 178 718 l 7 718 l 7 892 l 593 892 z "},"U":{"ha":725,"x_min":56,"x_max":669,"o":"m 426 892 l 669 892 l 669 172 q 465 0 669 0 l 260 0 q 56 172 56 0 l 56 892 l 299 892 l 299 204 q 333 174 299 174 l 392 174 q 426 204 426 174 l 426 892 z "},"V":{"ha":740,"x_min":10,"x_max":731,"o":"m 478 892 l 731 892 l 511 0 l 229 0 l 10 892 l 263 892 l 369 296 l 478 892 z "},"W":{"ha":1161,"x_min":14,"x_max":1147,"o":"m 907 892 l 1147 892 l 958 0 l 679 0 l 581 532 l 482 0 l 203 0 l 14 892 l 267 892 l 342 292 l 461 892 l 699 892 l 818 292 l 907 892 z "},"X":{"ha":724,"x_min":0,"x_max":724,"o":"m 492 453 l 724 0 l 450 0 l 354 250 l 258 0 l 0 0 l 218 453 l 6 892 l 281 892 l 354 664 l 429 892 l 690 892 l 492 453 z "},"Y":{"ha":721,"x_min":0,"x_max":721,"o":"m 489 0 l 246 0 l 246 289 l 0 892 l 249 892 l 365 515 l 474 892 l 721 892 l 489 292 l 489 0 z "},"Z":{"ha":644,"x_min":28,"x_max":617,"o":"m 617 892 l 617 718 l 282 174 l 607 174 l 607 0 l 28 0 l 28 174 l 363 718 l 46 718 l 46 892 l 617 892 z "},"[":{"ha":440,"x_min":56,"x_max":426,"o":"m 426 925 l 299 925 l 299 -44 l 426 -44 l 426 -218 l 56 -218 l 56 1099 l 426 1099 l 426 925 z "},"\\":{"ha":571,"x_min":-28,"x_max":599,"o":"m -28 975 l 172 975 l 599 -83 l 399 -83 l -28 975 z "},"]":{"ha":440,"x_min":14,"x_max":385,"o":"m 385 1099 l 385 -218 l 14 -218 l 14 -44 l 142 -44 l 142 925 l 14 925 l 14 1099 l 385 1099 z "},"^":{"ha":978,"x_min":128,"x_max":789,"o":"m 297 929 l 619 929 l 789 389 l 543 389 l 458 729 l 374 389 l 128 389 l 297 929 z "},"_":{"ha":658,"x_min":0,"x_max":658,"o":"m 0 -215 l 0 -56 l 658 -56 l 658 -215 l 0 -215 z "},"`":{"ha":694,"x_min":133,"x_max":504,"o":"m 369 947 l 504 739 l 318 739 l 133 947 l 369 947 z "},"a":{"ha":665,"x_min":42,"x_max":610,"o":"m 378 693 l 610 693 l 610 0 l 374 0 l 374 75 q 251 0 347 0 l 226 0 q 42 172 42 0 l 42 521 q 226 693 42 693 l 251 693 q 378 604 358 693 l 378 693 m 313 174 l 336 174 q 374 215 374 174 l 374 478 q 336 519 374 519 l 313 519 q 278 489 278 519 l 278 204 q 313 174 278 174 z "},"b":{"ha":665,"x_min":56,"x_max":624,"o":"m 414 693 l 439 693 q 624 521 624 693 l 624 172 q 439 0 624 0 l 414 0 q 288 89 307 0 l 288 0 l 56 0 l 56 929 l 292 929 l 292 618 q 414 693 318 693 m 388 204 l 388 489 q 353 519 388 519 l 329 519 q 292 478 292 519 l 292 215 q 329 174 292 174 l 353 174 q 388 204 388 174 z "},"c":{"ha":626,"x_min":42,"x_max":599,"o":"m 599 425 l 371 425 l 371 489 q 336 519 371 519 l 313 519 q 278 489 278 519 l 278 204 q 313 174 278 174 l 336 174 q 371 204 371 174 l 371 268 l 599 268 l 599 172 q 394 0 599 0 l 246 0 q 42 172 42 0 l 42 521 q 246 693 42 693 l 394 693 q 599 521 599 693 l 599 425 z "},"d":{"ha":665,"x_min":42,"x_max":610,"o":"m 374 929 l 610 929 l 610 0 l 378 0 l 378 89 q 251 0 358 0 l 226 0 q 42 172 42 0 l 42 521 q 226 693 42 693 l 251 693 q 374 618 347 693 l 374 929 m 313 174 l 336 174 q 374 215 374 174 l 374 478 q 336 519 374 519 l 313 519 q 278 489 278 519 l 278 204 q 313 174 278 174 z "},"e":{"ha":654,"x_min":42,"x_max":619,"o":"m 246 693 l 415 693 q 619 521 619 693 l 619 285 l 265 285 l 265 193 q 300 163 265 163 l 361 163 q 396 196 396 163 l 396 235 l 619 235 l 619 172 q 415 0 619 0 l 246 0 q 42 172 42 0 l 42 521 q 246 693 42 693 m 265 413 l 396 413 l 396 500 q 361 531 396 531 l 300 531 q 265 500 265 531 l 265 413 z "},"f":{"ha":436,"x_min":14,"x_max":429,"o":"m 429 763 l 356 763 q 321 732 321 763 l 321 693 l 429 693 l 429 519 l 321 519 l 321 0 l 85 0 l 85 519 l 14 519 l 14 693 l 85 693 l 85 757 q 289 929 85 929 l 429 929 l 429 763 z "},"g":{"ha":665,"x_min":42,"x_max":610,"o":"m 378 693 l 610 693 l 610 -7 q 406 -179 610 -179 l 74 -179 l 74 -12 l 339 -12 q 374 18 374 -12 l 374 117 q 251 42 347 42 l 226 42 q 42 214 42 42 l 42 521 q 226 693 42 693 l 251 693 q 378 604 358 693 l 378 693 m 313 215 l 336 215 q 374 257 374 215 l 374 478 q 336 519 374 519 l 313 519 q 278 489 278 519 l 278 246 q 313 215 278 215 z "},"h":{"ha":672,"x_min":56,"x_max":624,"o":"m 414 693 l 439 693 q 624 521 624 693 l 624 0 l 388 0 l 388 489 q 353 519 388 519 l 329 519 q 292 478 292 519 l 292 0 l 56 0 l 56 929 l 292 929 l 292 618 q 414 693 318 693 z "},"i":{"ha":347,"x_min":51,"x_max":296,"o":"m 51 763 l 51 929 l 296 929 l 296 763 l 51 763 m 292 0 l 56 0 l 56 693 l 292 693 l 292 0 z "},"j":{"ha":347,"x_min":-25,"x_max":296,"o":"m 51 763 l 51 929 l 296 929 l 296 763 l 51 763 m 56 18 l 56 693 l 292 693 l 292 -7 q 88 -179 292 -179 l -25 -179 l -25 -12 l 21 -12 q 56 18 56 -12 z "},"k":{"ha":660,"x_min":56,"x_max":667,"o":"m 292 0 l 56 0 l 56 929 l 292 929 l 292 378 l 422 693 l 667 693 l 518 351 l 667 0 l 421 0 l 292 324 l 292 0 z "},"l":{"ha":347,"x_min":56,"x_max":292,"o":"m 292 0 l 56 0 l 56 929 l 292 929 l 292 0 z "},"m":{"ha":1004,"x_min":56,"x_max":956,"o":"m 746 693 l 771 693 q 956 521 956 693 l 956 0 l 719 0 l 719 489 q 685 519 719 519 l 661 519 q 624 478 624 519 l 624 0 l 388 0 l 388 489 q 353 519 388 519 l 329 519 q 292 478 292 519 l 292 0 l 56 0 l 56 693 l 288 693 l 288 604 q 414 693 307 693 l 439 693 q 608 606 568 693 q 657 669 619 646 q 746 693 694 693 z "},"n":{"ha":672,"x_min":56,"x_max":624,"o":"m 414 693 l 439 693 q 624 521 624 693 l 624 0 l 388 0 l 388 489 q 353 519 388 519 l 329 519 q 292 478 292 519 l 292 0 l 56 0 l 56 693 l 288 693 l 288 604 q 414 693 307 693 z "},"o":{"ha":668,"x_min":49,"x_max":619,"o":"m 246 693 l 422 693 q 574 649 528 693 q 619 521 619 604 l 619 172 q 574 44 619 89 q 422 0 528 0 l 246 0 q 94 44 140 0 q 49 172 49 89 l 49 521 q 94 649 49 604 q 246 693 140 693 m 388 194 l 388 499 q 353 529 388 529 l 315 529 q 281 499 281 529 l 281 194 q 315 164 281 164 l 353 164 q 388 194 388 164 z "},"p":{"ha":665,"x_min":56,"x_max":624,"o":"m 414 693 l 439 693 q 624 521 624 693 l 624 172 q 439 0 624 0 l 414 0 q 292 75 318 0 l 292 -179 l 56 -179 l 56 693 l 288 693 l 288 604 q 414 693 307 693 m 388 204 l 388 489 q 353 519 388 519 l 329 519 q 292 478 292 519 l 292 215 q 329 174 292 174 l 353 174 q 388 204 388 174 z "},"q":{"ha":665,"x_min":42,"x_max":610,"o":"m 378 693 l 610 693 l 610 -179 l 374 -179 l 374 75 q 251 0 347 0 l 226 0 q 42 172 42 0 l 42 521 q 226 693 42 693 l 251 693 q 378 604 358 693 l 378 693 m 313 174 l 336 174 q 374 215 374 174 l 374 478 q 336 519 374 519 l 313 519 q 278 489 278 519 l 278 204 q 313 174 278 174 z "},"r":{"ha":465,"x_min":56,"x_max":458,"o":"m 438 700 l 458 700 l 458 494 l 379 494 q 292 400 292 494 l 292 0 l 56 0 l 56 693 l 288 693 l 288 586 q 338 669 299 639 q 438 700 376 700 z "},"s":{"ha":618,"x_min":35,"x_max":583,"o":"m 354 183 l 354 239 q 319 269 354 269 l 235 269 q 35 440 35 269 l 35 521 q 239 693 35 693 l 368 693 q 572 521 572 693 l 572 463 l 347 463 l 347 510 q 313 540 347 540 l 299 540 q 264 510 264 540 l 264 449 q 299 418 264 418 l 383 418 q 537 374 490 418 q 583 249 583 331 l 583 172 q 379 0 583 0 l 243 0 q 39 172 39 0 l 39 229 l 268 229 l 268 183 q 303 153 268 153 l 319 153 q 354 183 354 153 z "},"t":{"ha":421,"x_min":7,"x_max":407,"o":"m 407 519 l 319 519 l 319 204 q 354 174 319 174 l 406 174 l 406 0 l 288 0 q 83 172 83 0 l 83 519 l 7 519 l 7 693 l 83 693 l 83 829 l 319 829 l 319 693 l 407 693 l 407 519 z "},"u":{"ha":672,"x_min":49,"x_max":617,"o":"m 381 693 l 617 693 l 617 0 l 385 0 l 385 89 q 258 0 365 0 l 233 0 q 49 172 49 0 l 49 693 l 285 693 l 285 204 q 319 174 285 174 l 343 174 q 381 215 381 174 l 381 693 z "},"v":{"ha":638,"x_min":0,"x_max":638,"o":"m 235 693 l 319 249 l 403 693 l 638 693 l 460 0 l 178 0 l 0 693 l 235 693 z "},"w":{"ha":943,"x_min":7,"x_max":936,"o":"m 719 693 l 936 693 l 788 0 l 553 0 l 468 408 l 382 0 l 147 0 l 7 693 l 226 693 l 278 256 l 368 693 l 575 693 l 656 258 l 719 693 z "},"x":{"ha":621,"x_min":0,"x_max":621,"o":"m 449 358 l 621 0 l 382 0 l 307 206 l 239 0 l 8 0 l 167 354 l 0 693 l 247 693 l 307 500 l 367 693 l 601 693 l 449 358 z "},"y":{"ha":644,"x_min":0,"x_max":644,"o":"m 208 -179 l 92 -179 l 92 -8 l 194 -8 q 247 3 228 -8 q 281 56 267 14 l 190 56 l 0 693 l 247 693 l 332 271 l 407 693 l 644 693 l 471 14 q 382 -131 442 -82 q 208 -179 322 -179 z "},"z":{"ha":543,"x_min":14,"x_max":529,"o":"m 529 165 l 529 0 l 14 0 l 14 165 l 263 528 l 32 528 l 32 693 l 515 693 l 515 528 l 263 165 l 529 165 z "},"{":{"ha":453,"x_min":22,"x_max":439,"o":"m 368 908 l 368 615 q 260 442 368 468 q 338 397 308 439 q 368 283 368 356 l 368 -26 q 403 -57 368 -57 l 439 -57 l 439 -217 l 329 -217 q 174 -166 224 -217 q 125 -31 125 -115 l 125 250 q 103 335 125 308 q 32 361 82 361 l 22 361 l 22 521 l 32 521 q 103 548 82 521 q 125 635 125 575 l 125 913 q 174 1048 125 997 q 329 1099 224 1099 l 439 1099 l 439 939 l 403 939 q 368 908 368 939 z "},"|":{"ha":369,"x_min":69,"x_max":285,"o":"m 69 1157 l 285 1157 l 285 -268 l 69 -268 l 69 1157 z "},"}":{"ha":453,"x_min":14,"x_max":431,"o":"m 85 615 l 85 908 q 50 939 85 939 l 14 939 l 14 1099 l 124 1099 q 278 1048 229 1099 q 328 913 328 997 l 328 635 q 349 548 328 575 q 421 521 371 521 l 431 521 l 431 361 l 421 361 q 349 335 371 361 q 328 250 328 308 l 328 -31 q 278 -166 328 -115 q 124 -217 229 -217 l 14 -217 l 14 -57 l 50 -57 q 85 -26 85 -57 l 85 283 q 115 397 85 356 q 193 442 144 439 q 85 615 85 468 z "},"~":{"ha":999,"x_min":133,"x_max":860,"o":"m 613 283 q 488 337 558 283 q 391 390 418 390 q 356 381 364 390 q 349 346 349 371 l 349 283 l 133 283 l 133 401 q 169 507 133 474 q 288 540 206 540 l 381 540 q 556 460 460 540 q 608 433 586 433 q 637 443 629 433 q 644 478 644 453 l 644 540 l 860 540 l 860 422 q 824 317 860 350 q 706 283 788 283 l 613 283 z "}," ":{"ha":278,"x_min":0,"x_max":0,"o":""},"¡":{"ha":413,"x_min":69,"x_max":343,"o":"m 343 -199 l 69 -199 l 111 369 l 301 369 l 343 -199 m 86 465 l 86 693 l 325 693 l 325 465 l 86 465 z "},"¢":{"ha":626,"x_min":42,"x_max":599,"o":"m 599 425 l 371 425 l 371 489 q 336 519 371 519 l 313 519 q 278 489 278 519 l 278 204 q 313 174 278 174 l 336 174 q 371 204 371 174 l 371 268 l 599 268 l 599 172 q 438 3 599 18 l 438 -111 l 208 -111 l 208 1 q 42 172 42 17 l 42 521 q 208 692 42 676 l 208 804 l 438 804 l 438 690 q 599 521 599 675 l 599 425 z "},"£":{"ha":703,"x_min":28,"x_max":682,"o":"m 682 174 l 682 0 l 28 0 l 28 161 q 79 191 69 167 q 89 275 89 215 l 89 339 l 28 339 l 28 499 l 89 499 l 89 719 q 293 892 89 892 l 472 892 q 676 719 676 892 l 676 590 l 433 590 l 433 688 q 399 718 433 718 l 367 718 q 332 688 332 718 l 332 499 l 538 499 l 538 339 l 332 339 l 332 274 q 294 174 332 201 l 682 174 z "},"¤":{"ha":826,"x_min":44,"x_max":750,"o":"m 706 453 l 706 381 q 688 250 706 304 l 750 188 l 610 46 l 526 129 q 453 124 497 124 l 349 124 q 269 131 308 124 l 185 46 l 44 188 l 113 256 q 96 381 96 304 l 96 453 q 119 599 96 542 l 44 674 l 185 815 l 293 708 q 349 711 326 711 l 453 711 q 503 708 472 711 l 610 815 l 750 674 l 679 603 q 706 453 706 549 m 389 275 l 410 275 q 492 295 468 275 q 517 381 517 315 l 517 451 q 492 538 517 517 q 410 558 468 558 l 389 558 q 306 538 331 558 q 282 451 282 517 l 282 381 q 306 295 282 315 q 389 275 329 275 z "},"¥":{"ha":735,"x_min":7,"x_max":728,"o":"m 685 319 l 685 174 l 496 174 l 496 0 l 253 0 l 253 174 l 60 174 l 60 319 l 240 319 l 221 367 l 60 367 l 60 513 l 161 513 l 7 892 l 256 892 l 372 515 l 481 892 l 728 892 l 581 513 l 683 513 l 683 367 l 525 367 l 507 319 l 685 319 z "},"¦":{"ha":369,"x_min":56,"x_max":299,"o":"m 299 525 l 56 525 l 56 1018 l 299 1018 l 299 525 m 56 364 l 299 364 l 299 -129 l 56 -129 l 56 364 z "},"§":{"ha":750,"x_min":83,"x_max":667,"o":"m 667 711 l 431 711 l 431 746 q 396 776 431 776 l 367 776 q 332 746 332 776 l 332 690 q 367 660 332 660 l 451 660 q 656 488 656 660 l 656 389 q 619 263 656 304 q 654 150 654 219 l 654 65 q 450 -107 654 -107 l 288 -107 q 83 65 83 -107 l 83 111 l 319 111 l 319 76 q 354 46 319 46 l 383 46 q 418 76 418 46 l 418 132 q 383 163 418 163 l 299 163 q 94 335 94 163 l 94 414 q 140 549 94 508 q 96 672 96 593 l 96 757 q 300 929 96 929 l 463 929 q 667 757 667 929 l 667 711 m 433 353 l 433 469 q 399 500 433 500 l 351 500 q 317 469 317 500 l 317 353 q 351 322 317 322 l 399 322 q 433 353 433 322 z "},"¨":{"ha":694,"x_min":75,"x_max":619,"o":"m 408 753 l 408 933 l 619 933 l 619 753 l 408 753 m 75 753 l 75 933 l 286 933 l 286 753 l 75 753 z "},"©":{"ha":1072,"x_min":42,"x_max":1031,"o":"m 574 361 l 574 408 l 736 408 l 736 333 q 596 215 736 215 l 479 215 q 339 333 339 215 l 339 560 q 479 678 339 678 l 596 678 q 736 560 736 678 l 736 486 l 574 486 l 574 532 q 550 553 574 553 l 525 553 q 501 532 501 553 l 501 361 q 525 340 501 340 l 550 340 q 574 361 574 340 m 446 138 l 626 138 q 799 189 749 138 q 850 397 850 240 l 850 494 q 799 703 850 651 q 626 754 749 754 l 446 754 q 273 703 324 754 q 222 494 222 651 l 222 397 q 273 189 222 240 q 446 138 324 138 m 1031 469 l 1031 422 q 958 118 1031 226 q 672 0 879 0 l 400 0 q 114 118 193 0 q 42 422 42 226 l 42 469 q 114 774 42 665 q 400 892 193 892 l 672 892 q 958 774 879 892 q 1031 469 1031 665 z "},"ª":{"ha":468,"x_min":35,"x_max":426,"o":"m 285 892 l 426 892 l 426 401 l 281 401 l 281 443 q 208 401 265 401 l 165 401 q 35 524 35 401 l 35 769 q 165 892 35 892 l 203 892 q 285 832 271 892 l 285 892 m 204 521 l 254 521 q 281 551 281 521 l 281 746 q 254 775 281 775 l 204 775 q 181 753 181 775 l 181 543 q 204 521 181 521 z "},"«":{"ha":696,"x_min":21,"x_max":689,"o":"m 468 133 l 315 346 l 468 556 l 689 556 l 540 346 l 689 133 l 468 133 m 174 133 l 21 346 l 174 556 l 394 556 l 246 346 l 394 133 l 174 133 z "},"¬":{"ha":788,"x_min":69,"x_max":704,"o":"m 704 579 l 704 140 l 544 140 l 544 336 l 69 336 l 69 579 l 704 579 z "},"­":{"ha":476,"x_min":28,"x_max":449,"o":"m 28 340 l 28 500 l 449 500 l 449 340 l 28 340 z "},"®":{"ha":664,"x_min":42,"x_max":622,"o":"m 356 788 l 356 826 q 344 836 356 836 l 314 836 l 314 778 l 344 778 q 356 788 356 778 m 235 892 l 368 892 q 435 836 435 892 l 435 778 q 397 724 435 736 l 451 629 l 365 629 l 319 721 l 314 721 l 314 629 l 235 629 l 235 892 m 279 583 l 385 583 q 486 611 457 583 q 515 731 515 639 l 515 789 q 486 907 515 879 q 385 935 457 935 l 279 935 q 177 907 207 935 q 147 789 147 879 l 147 731 q 177 611 147 639 q 279 583 207 583 m 622 772 l 622 746 q 576 561 622 625 q 411 497 529 497 l 251 497 q 88 561 133 497 q 42 746 42 625 l 42 772 q 88 958 42 894 q 251 1021 133 1021 l 411 1021 q 576 957 529 1021 q 622 772 622 893 z "},"¯":{"ha":694,"x_min":76,"x_max":617,"o":"m 76 771 l 76 918 l 617 918 l 617 771 l 76 771 z "},"°":{"ha":672,"x_min":56,"x_max":617,"o":"m 397 597 l 397 715 q 363 746 397 746 l 310 746 q 275 715 275 746 l 275 597 q 310 567 275 567 l 363 567 q 397 597 397 567 m 617 719 l 617 593 q 571 465 617 510 q 419 421 525 421 l 253 421 q 101 465 147 421 q 56 593 56 510 l 56 719 q 101 847 56 803 q 253 892 147 892 l 419 892 q 571 847 525 892 q 617 719 617 803 z "},"±":{"ha":740,"x_min":35,"x_max":706,"o":"m 483 683 l 706 683 l 706 515 l 483 515 l 483 411 l 257 411 l 257 515 l 35 515 l 35 683 l 257 683 l 257 788 l 483 788 l 483 683 m 35 193 l 35 367 l 706 367 l 706 193 l 35 193 z "},"²":{"ha":399,"x_min":18,"x_max":364,"o":"m 165 779 l 165 710 l 18 710 l 18 797 q 131 892 18 892 l 253 892 q 364 797 364 892 l 364 739 q 303 593 364 647 l 201 503 l 364 503 l 364 401 l 21 401 l 21 490 l 188 644 q 213 678 207 663 q 218 728 218 693 l 218 779 q 200 796 218 796 l 185 796 q 165 779 165 796 z "},"³":{"ha":393,"x_min":18,"x_max":364,"o":"m 165 779 l 165 732 l 18 732 l 18 797 q 131 892 18 892 l 251 892 q 364 797 364 892 l 364 732 q 328 646 364 665 q 364 567 364 629 l 364 496 q 251 401 364 401 l 131 401 q 18 496 18 401 l 18 563 l 165 563 l 165 514 q 185 497 165 497 l 200 497 q 218 514 218 497 l 218 583 q 200 600 218 600 l 149 600 l 149 689 l 200 689 q 218 706 218 689 l 218 779 q 200 796 218 796 l 185 796 q 165 779 165 796 z "},"´":{"ha":694,"x_min":161,"x_max":532,"o":"m 161 739 l 296 947 l 532 947 l 347 739 l 161 739 z "},"µ":{"ha":679,"x_min":56,"x_max":624,"o":"m 388 693 l 624 693 l 624 0 l 392 0 l 392 89 q 292 1 375 14 l 292 -179 l 56 -179 l 56 693 l 292 693 l 292 204 q 326 174 292 174 l 350 174 q 388 215 388 174 l 388 693 z "},"¶":{"ha":790,"x_min":38,"x_max":721,"o":"m 533 892 l 721 892 l 721 -179 l 533 -179 l 533 892 m 460 892 l 460 -179 l 272 -179 l 272 292 l 242 292 q 38 464 38 292 l 38 719 q 242 892 38 892 l 460 892 z "},"·":{"ha":378,"x_min":68,"x_max":307,"o":"m 68 358 l 68 572 l 307 572 l 307 358 l 68 358 z "},"¸":{"ha":694,"x_min":168,"x_max":499,"o":"m 276 -171 l 276 -64 l 499 -64 l 499 -189 q 294 -361 499 -361 l 168 -361 l 168 -201 l 242 -201 q 276 -171 276 -201 z "},"¹":{"ha":303,"x_min":14,"x_max":235,"o":"m 235 892 l 235 401 l 82 401 l 82 796 l 14 796 l 14 892 l 235 892 z "},"º":{"ha":460,"x_min":35,"x_max":425,"o":"m 174 892 l 285 892 q 392 860 360 892 q 425 769 425 829 l 425 524 q 285 401 425 401 l 174 401 q 35 524 35 401 l 35 769 q 174 892 35 892 m 279 518 l 279 774 q 254 796 279 796 l 206 796 q 181 774 181 796 l 181 518 q 206 497 181 497 l 254 497 q 279 518 279 497 z "},"»":{"ha":696,"x_min":21,"x_max":689,"o":"m 689 346 l 536 133 l 315 133 l 464 346 l 315 556 l 536 556 l 689 346 m 394 346 l 242 133 l 21 133 l 169 346 l 21 556 l 242 556 l 394 346 z "},"¿":{"ha":651,"x_min":28,"x_max":624,"o":"m 381 86 l 624 86 l 624 -26 q 419 -199 624 -199 l 232 -199 q 28 -26 28 -199 l 28 113 q 226 285 28 283 l 235 369 l 438 369 l 458 157 l 306 157 q 271 126 271 157 l 271 -8 q 306 -39 271 -39 l 346 -39 q 381 -8 381 -39 l 381 86 m 458 693 l 458 465 l 219 465 l 219 693 l 458 693 z "},"À":{"ha":754,"x_min":0,"x_max":754,"o":"m 510 0 l 482 133 l 268 133 l 239 0 l 0 0 l 229 892 l 525 892 l 754 0 l 510 0 m 306 306 l 444 306 l 376 626 l 306 306 m 460 938 l 274 938 l 89 1146 l 325 1146 l 460 938 z "},"Á":{"ha":754,"x_min":0,"x_max":754,"o":"m 510 0 l 482 133 l 268 133 l 239 0 l 0 0 l 229 892 l 525 892 l 754 0 l 510 0 m 306 306 l 444 306 l 376 626 l 306 306 m 658 1146 l 474 938 l 288 938 l 422 1146 l 658 1146 z "},"Â":{"ha":754,"x_min":0,"x_max":754,"o":"m 510 0 l 482 133 l 268 133 l 239 0 l 0 0 l 229 892 l 525 892 l 754 0 l 510 0 m 306 306 l 444 306 l 376 626 l 306 306 m 376 1033 l 303 938 l 85 938 l 269 1146 l 483 1146 l 668 938 l 450 938 l 376 1033 z "},"Ã":{"ha":754,"x_min":0,"x_max":754,"o":"m 510 0 l 482 133 l 268 133 l 239 0 l 0 0 l 229 892 l 525 892 l 754 0 l 510 0 m 306 306 l 444 306 l 376 626 l 306 306 m 275 981 l 275 938 l 88 938 l 88 1014 q 119 1113 88 1079 q 225 1146 150 1146 l 251 1146 q 356 1110 299 1146 q 421 1074 413 1074 q 446 1103 446 1074 l 446 1146 l 633 1146 l 633 1063 q 601 968 633 999 q 493 938 569 938 l 469 938 q 365 974 422 938 q 300 1010 308 1010 q 275 981 275 1010 z "},"Ä":{"ha":754,"x_min":0,"x_max":754,"o":"m 510 0 l 482 133 l 268 133 l 239 0 l 0 0 l 229 892 l 525 892 l 754 0 l 510 0 m 306 306 l 444 306 l 376 626 l 306 306 m 315 1118 l 315 938 l 104 938 l 104 1118 l 315 1118 m 649 1118 l 649 938 l 438 938 l 438 1118 l 649 1118 z "},"Å":{"ha":754,"x_min":0,"x_max":754,"o":"m 510 0 l 482 133 l 268 133 l 239 0 l 0 0 l 229 892 l 525 892 l 754 0 l 510 0 m 306 306 l 444 306 l 376 626 l 306 306 m 438 936 l 318 936 q 176 1060 176 936 l 176 1082 q 318 1207 176 1207 l 438 1207 q 579 1082 579 1207 l 579 1060 q 438 936 579 936 m 324 1081 l 324 1061 q 351 1035 324 1035 l 404 1035 q 432 1061 432 1035 l 432 1081 q 404 1107 432 1107 l 351 1107 q 324 1081 324 1107 z "},"Æ":{"ha":1069,"x_min":0,"x_max":1046,"o":"m 742 174 l 1046 174 l 1046 0 l 513 0 l 513 160 l 299 160 l 239 0 l 0 0 l 354 892 l 1033 892 l 1033 718 l 742 718 l 742 536 l 993 536 l 993 363 l 742 363 l 742 174 m 513 326 l 513 738 l 360 326 l 513 326 z "},"Ç":{"ha":688,"x_min":49,"x_max":653,"o":"m 653 558 l 410 558 l 410 701 q 375 732 410 732 l 326 732 q 292 701 292 732 l 292 190 q 326 160 292 160 l 375 160 q 410 190 410 160 l 410 328 l 653 328 l 653 172 q 449 0 653 0 l 253 0 q 49 172 49 0 l 49 719 q 253 892 49 892 l 449 892 q 653 719 653 892 l 653 558 m 236 -171 l 236 -64 l 458 -64 l 458 -189 q 254 -361 458 -361 l 128 -361 l 128 -201 l 201 -201 q 236 -171 236 -201 z "},"È":{"ha":624,"x_min":49,"x_max":603,"o":"m 299 174 l 603 174 l 603 0 l 56 0 l 56 892 l 590 892 l 590 718 l 299 718 l 299 536 l 550 536 l 550 363 l 299 363 l 299 174 m 419 938 l 233 938 l 49 1146 l 285 1146 l 419 938 z "},"É":{"ha":624,"x_min":56,"x_max":603,"o":"m 299 174 l 603 174 l 603 0 l 56 0 l 56 892 l 590 892 l 590 718 l 299 718 l 299 536 l 550 536 l 550 363 l 299 363 l 299 174 m 600 1146 l 415 938 l 229 938 l 364 1146 l 600 1146 z "},"Ê":{"ha":624,"x_min":36,"x_max":619,"o":"m 299 363 l 299 174 l 603 174 l 603 0 l 56 0 l 56 892 l 590 892 l 590 718 l 299 718 l 299 536 l 550 536 l 550 363 l 299 363 m 328 1033 l 254 938 l 36 938 l 221 1146 l 435 1146 l 619 938 l 401 938 l 328 1033 z "},"Ë":{"ha":694,"x_min":53,"x_max":603,"o":"m 299 174 l 603 174 l 603 0 l 56 0 l 56 892 l 590 892 l 590 718 l 299 718 l 299 536 l 550 536 l 550 363 l 299 363 l 299 174 m 264 1118 l 264 938 l 53 938 l 53 1118 l 264 1118 m 597 1118 l 597 938 l 386 938 l 386 1118 l 597 1118 z "},"Ì":{"ha":354,"x_min":-101,"x_max":299,"o":"m 135 1146 l 269 938 l 83 938 l -101 1146 l 135 1146 m 56 892 l 299 892 l 299 0 l 56 0 l 56 892 z "},"Í":{"ha":354,"x_min":56,"x_max":449,"o":"m 78 938 l 213 1146 l 449 1146 l 264 938 l 78 938 m 56 892 l 299 892 l 299 0 l 56 0 l 56 892 z "},"Î":{"ha":354,"x_min":-115,"x_max":468,"o":"m -115 938 l 69 1146 l 283 1146 l 468 938 l 250 938 l 176 1033 l 103 938 l -115 938 m 56 892 l 299 892 l 299 0 l 56 0 l 56 892 z "},"Ï":{"ha":354,"x_min":-94,"x_max":450,"o":"m 56 892 l 299 892 l 299 0 l 56 0 l 56 892 m 239 938 l 239 1118 l 450 1118 l 450 938 l 239 938 m -94 938 l -94 1118 l 117 1118 l 117 938 l -94 938 z "},"Ð":{"ha":732,"x_min":-7,"x_max":683,"o":"m 69 892 l 479 892 q 683 719 683 892 l 683 172 q 479 0 683 0 l 69 0 l 69 374 l -7 374 l -7 533 l 69 533 l 69 892 m 440 190 l 440 701 q 406 732 440 732 l 313 732 l 313 533 l 389 533 l 389 374 l 313 374 l 313 160 l 406 160 q 440 190 440 160 z "},"Ñ":{"ha":740,"x_min":56,"x_max":685,"o":"m 482 938 q 378 974 435 938 q 313 1010 321 1010 q 288 981 288 1010 l 288 938 l 100 938 l 100 1014 q 131 1113 100 1079 q 238 1146 163 1146 l 264 1146 q 368 1110 311 1146 q 433 1074 425 1074 q 458 1103 458 1074 l 458 1146 l 646 1146 l 646 1063 q 614 968 646 999 q 506 938 582 938 l 482 938 m 463 892 l 685 892 l 685 0 l 476 0 l 278 468 l 278 0 l 56 0 l 56 892 l 264 892 l 463 415 l 463 892 z "},"Ò":{"ha":717,"x_min":51,"x_max":665,"o":"m 256 892 l 461 892 q 665 719 665 892 l 665 172 q 461 0 665 0 l 256 0 q 51 172 51 0 l 51 719 q 256 892 51 892 m 422 204 l 422 688 q 388 718 422 718 l 329 718 q 294 688 294 718 l 294 204 q 329 174 294 174 l 388 174 q 422 204 422 174 m 447 938 l 261 938 l 76 1146 l 313 1146 l 447 938 z "},"Ó":{"ha":717,"x_min":51,"x_max":665,"o":"m 256 892 l 461 892 q 665 719 665 892 l 665 172 q 461 0 665 0 l 256 0 q 51 172 51 0 l 51 719 q 256 892 51 892 m 422 204 l 422 688 q 388 718 422 718 l 329 718 q 294 688 294 718 l 294 204 q 329 174 294 174 l 388 174 q 422 204 422 174 m 642 1146 l 457 938 l 271 938 l 406 1146 l 642 1146 z "},"Ô":{"ha":717,"x_min":51,"x_max":665,"o":"m 256 892 l 461 892 q 665 719 665 892 l 665 172 q 461 0 665 0 l 256 0 q 51 172 51 0 l 51 719 q 256 892 51 892 m 422 204 l 422 688 q 388 718 422 718 l 329 718 q 294 688 294 718 l 294 204 q 329 174 294 174 l 388 174 q 422 204 422 174 m 356 1033 l 282 938 l 64 938 l 249 1146 l 463 1146 l 647 938 l 429 938 l 356 1033 z "},"Õ":{"ha":717,"x_min":51,"x_max":665,"o":"m 256 892 l 461 892 q 665 719 665 892 l 665 172 q 461 0 665 0 l 256 0 q 51 172 51 0 l 51 719 q 256 892 51 892 m 422 204 l 422 688 q 388 718 422 718 l 329 718 q 294 688 294 718 l 294 204 q 329 174 294 174 l 388 174 q 422 204 422 174 m 269 981 l 269 938 l 82 938 l 82 1014 q 113 1113 82 1079 q 219 1146 144 1146 l 246 1146 q 350 1110 293 1146 q 415 1074 407 1074 q 440 1103 440 1074 l 440 1146 l 628 1146 l 628 1063 q 596 968 628 999 q 488 938 564 938 l 464 938 q 360 974 417 938 q 294 1010 303 1010 q 269 981 269 1010 z "},"Ö":{"ha":694,"x_min":51,"x_max":665,"o":"m 256 892 l 461 892 q 665 719 665 892 l 665 172 q 461 0 665 0 l 256 0 q 51 172 51 0 l 51 719 q 256 892 51 892 m 422 204 l 422 688 q 388 718 422 718 l 329 718 q 294 688 294 718 l 294 204 q 329 174 294 174 l 388 174 q 422 204 422 174 m 297 1118 l 297 938 l 86 938 l 86 1118 l 297 1118 m 631 1118 l 631 938 l 419 938 l 419 1118 l 631 1118 z "},"×":{"ha":669,"x_min":28,"x_max":642,"o":"m 642 604 l 469 432 l 642 260 l 507 125 l 335 297 l 163 125 l 28 260 l 200 432 l 28 604 l 163 739 l 335 567 l 507 739 l 642 604 z "},"Ø":{"ha":717,"x_min":42,"x_max":683,"o":"m 665 719 l 665 172 q 461 0 665 0 l 256 0 q 167 11 207 0 l 144 -28 l 42 -28 l 89 56 q 51 172 51 97 l 51 719 q 256 892 51 892 l 461 892 q 557 879 517 892 l 581 919 l 683 919 l 632 831 q 665 719 665 789 m 281 701 l 281 392 l 436 665 l 436 701 q 401 732 436 732 l 315 732 q 281 701 281 732 m 436 190 l 436 485 l 281 211 l 281 190 q 315 160 281 160 l 401 160 q 436 190 436 160 z "},"Ù":{"ha":725,"x_min":56,"x_max":669,"o":"m 426 892 l 669 892 l 669 172 q 465 0 669 0 l 260 0 q 56 172 56 0 l 56 892 l 299 892 l 299 204 q 333 174 299 174 l 392 174 q 426 204 426 174 l 426 892 m 453 938 l 267 938 l 82 1146 l 318 1146 l 453 938 z "},"Ú":{"ha":725,"x_min":56,"x_max":669,"o":"m 426 892 l 669 892 l 669 172 q 465 0 669 0 l 260 0 q 56 172 56 0 l 56 892 l 299 892 l 299 204 q 333 174 299 174 l 392 174 q 426 204 426 174 l 426 892 m 629 1146 l 444 938 l 258 938 l 393 1146 l 629 1146 z "},"Û":{"ha":725,"x_min":56,"x_max":669,"o":"m 426 892 l 669 892 l 669 172 q 465 0 669 0 l 260 0 q 56 172 56 0 l 56 892 l 299 892 l 299 204 q 333 174 299 174 l 392 174 q 426 204 426 174 l 426 892 m 363 1033 l 289 938 l 71 938 l 256 1146 l 469 1146 l 654 938 l 436 938 l 363 1033 z "},"Ü":{"ha":725,"x_min":56,"x_max":669,"o":"m 426 892 l 669 892 l 669 172 q 465 0 669 0 l 260 0 q 56 172 56 0 l 56 892 l 299 892 l 299 204 q 333 174 299 174 l 392 174 q 426 204 426 174 l 426 892 m 300 1118 l 300 938 l 89 938 l 89 1118 l 300 1118 m 633 1118 l 633 938 l 422 938 l 422 1118 l 633 1118 z "},"Ý":{"ha":721,"x_min":0,"x_max":721,"o":"m 489 0 l 246 0 l 246 289 l 0 892 l 249 892 l 365 515 l 474 892 l 721 892 l 489 292 l 489 0 m 629 1146 l 444 938 l 258 938 l 393 1146 l 629 1146 z "},"Þ":{"ha":742,"x_min":63,"x_max":665,"o":"m 306 731 l 461 731 q 665 558 665 731 l 665 332 q 461 160 665 160 l 306 160 l 306 0 l 63 0 l 63 892 l 306 892 l 306 731 m 422 357 l 422 533 q 388 564 422 564 l 306 564 l 306 326 l 388 326 q 422 357 422 326 z "},"ß":{"ha":940,"x_min":63,"x_max":924,"o":"m 364 226 l 600 226 l 600 190 q 628 160 600 161 l 653 160 q 688 190 688 160 l 688 246 q 653 276 688 276 l 561 276 q 413 320 456 276 q 371 449 371 364 l 371 479 q 415 597 371 558 q 561 635 460 635 q 592 665 592 635 l 592 688 q 561 718 592 718 l 340 718 q 306 688 306 718 l 306 0 l 63 0 l 63 719 q 105 848 63 804 q 253 892 147 892 l 657 892 q 849 731 849 892 l 849 643 q 814 530 849 561 q 672 499 779 499 l 636 499 q 601 468 601 499 l 601 458 q 636 428 601 428 l 719 428 q 924 256 924 428 l 924 172 q 881 44 924 88 q 733 0 839 0 l 558 0 q 364 172 364 4 l 364 226 z "},"à":{"ha":665,"x_min":42,"x_max":610,"o":"m 378 693 l 610 693 l 610 0 l 374 0 l 374 75 q 251 0 347 0 l 226 0 q 42 172 42 0 l 42 521 q 226 693 42 693 l 251 693 q 378 604 358 693 l 378 693 m 313 174 l 336 174 q 374 215 374 174 l 374 478 q 336 519 374 519 l 313 519 q 278 489 278 519 l 278 204 q 313 174 278 174 m 464 739 l 278 739 l 93 947 l 329 947 l 464 739 z "},"á":{"ha":665,"x_min":42,"x_max":615,"o":"m 378 693 l 610 693 l 610 0 l 374 0 l 374 75 q 251 0 347 0 l 226 0 q 42 172 42 0 l 42 521 q 226 693 42 693 l 251 693 q 378 604 358 693 l 378 693 m 313 174 l 336 174 q 374 215 374 174 l 374 478 q 336 519 374 519 l 313 519 q 278 489 278 519 l 278 204 q 313 174 278 174 m 615 947 l 431 739 l 244 739 l 379 947 l 615 947 z "},"â":{"ha":665,"x_min":42,"x_max":626,"o":"m 378 693 l 610 693 l 610 0 l 374 0 l 374 75 q 251 0 347 0 l 226 0 q 42 172 42 0 l 42 521 q 226 693 42 693 l 251 693 q 378 604 358 693 l 378 693 m 313 174 l 336 174 q 374 215 374 174 l 374 478 q 336 519 374 519 l 313 519 q 278 489 278 519 l 278 204 q 313 174 278 174 m 335 835 l 261 739 l 43 739 l 228 947 l 442 947 l 626 739 l 408 739 l 335 835 z "},"ã":{"ha":665,"x_min":42,"x_max":610,"o":"m 378 693 l 610 693 l 610 0 l 374 0 l 374 75 q 251 0 347 0 l 226 0 q 42 172 42 0 l 42 521 q 226 693 42 693 l 251 693 q 378 604 358 693 l 378 693 m 313 174 l 336 174 q 374 215 374 174 l 374 478 q 336 519 374 519 l 313 519 q 278 489 278 519 l 278 204 q 313 174 278 174 m 246 782 l 246 739 l 58 739 l 58 815 q 90 914 58 881 q 196 947 121 947 l 222 947 q 326 911 269 947 q 392 875 383 875 q 417 904 417 875 l 417 947 l 604 947 l 604 864 q 572 769 604 800 q 464 739 540 739 l 440 739 q 336 775 393 739 q 271 811 279 811 q 246 782 246 811 z "},"ä":{"ha":665,"x_min":42,"x_max":619,"o":"m 408 933 l 619 933 l 619 753 l 408 753 l 408 933 m 378 693 l 610 693 l 610 0 l 374 0 l 374 75 q 251 0 347 0 l 226 0 q 42 172 42 0 l 42 521 q 226 693 42 693 l 251 693 q 378 604 358 693 l 378 693 m 313 174 l 336 174 q 374 215 374 174 l 374 478 q 336 519 374 519 l 313 519 q 278 489 278 519 l 278 204 q 313 174 278 174 m 286 933 l 286 753 l 75 753 l 75 933 l 286 933 z "},"å":{"ha":665,"x_min":42,"x_max":610,"o":"m 378 693 l 610 693 l 610 0 l 374 0 l 374 75 q 251 0 347 0 l 226 0 q 42 172 42 0 l 42 521 q 226 693 42 693 l 251 693 q 378 604 358 693 l 378 693 m 313 174 l 336 174 q 374 215 374 174 l 374 478 q 336 519 374 519 l 313 519 q 278 489 278 519 l 278 204 q 313 174 278 174 m 393 736 l 274 736 q 132 860 132 736 l 132 882 q 274 1007 132 1007 l 393 1007 q 535 882 535 1007 l 535 860 q 393 736 535 736 m 279 881 l 279 861 q 307 835 279 835 l 360 835 q 388 861 388 835 l 388 881 q 360 907 388 907 l 307 907 q 279 881 279 907 z "},"æ":{"ha":1022,"x_min":49,"x_max":958,"o":"m 668 693 l 754 693 q 958 521 958 693 l 958 279 l 610 279 l 610 197 q 644 167 610 167 l 694 167 q 729 197 729 167 l 729 232 l 958 232 l 958 172 q 754 0 958 0 l 667 0 q 485 78 532 0 q 422 21 465 42 q 326 0 378 0 l 233 0 q 49 172 49 0 l 49 289 l 381 425 l 381 478 q 343 519 381 519 l 319 519 q 285 489 285 519 l 285 429 l 49 429 l 49 521 q 233 693 49 693 l 328 693 q 423 672 379 693 q 486 615 467 651 q 668 693 533 693 m 319 174 l 343 174 q 381 215 381 174 l 381 282 l 285 242 l 285 204 q 319 174 285 174 m 610 417 l 729 417 l 729 496 q 694 526 729 526 l 644 526 q 610 496 610 526 l 610 417 z "},"ç":{"ha":626,"x_min":42,"x_max":599,"o":"m 599 425 l 371 425 l 371 489 q 336 519 371 519 l 313 519 q 278 489 278 519 l 278 204 q 313 174 278 174 l 336 174 q 371 204 371 174 l 371 268 l 599 268 l 599 172 q 394 0 599 0 l 246 0 q 42 172 42 0 l 42 521 q 246 693 42 693 l 394 693 q 599 521 599 693 l 599 425 m 217 -171 l 217 -64 l 439 -64 l 439 -189 q 235 -361 439 -361 l 108 -361 l 108 -201 l 182 -201 q 217 -171 217 -201 z "},"è":{"ha":654,"x_min":36,"x_max":619,"o":"m 246 693 l 415 693 q 619 521 619 693 l 619 285 l 265 285 l 265 193 q 300 163 265 163 l 361 163 q 396 196 396 163 l 396 235 l 619 235 l 619 172 q 415 0 619 0 l 246 0 q 42 172 42 0 l 42 521 q 246 693 42 693 m 265 413 l 396 413 l 396 500 q 361 531 396 531 l 300 531 q 265 500 265 531 l 265 413 m 407 739 l 221 739 l 36 947 l 272 947 l 407 739 z "},"é":{"ha":654,"x_min":42,"x_max":619,"o":"m 246 693 l 415 693 q 619 521 619 693 l 619 285 l 265 285 l 265 193 q 300 163 265 163 l 361 163 q 396 196 396 163 l 396 235 l 619 235 l 619 172 q 415 0 619 0 l 246 0 q 42 172 42 0 l 42 521 q 246 693 42 693 m 265 413 l 396 413 l 396 500 q 361 531 396 531 l 300 531 q 265 500 265 531 l 265 413 m 607 947 l 422 739 l 236 739 l 371 947 l 607 947 z "},"ê":{"ha":654,"x_min":42,"x_max":625,"o":"m 246 693 l 415 693 q 619 521 619 693 l 619 285 l 265 285 l 265 193 q 300 163 265 163 l 361 163 q 396 196 396 163 l 396 235 l 619 235 l 619 172 q 415 0 619 0 l 246 0 q 42 172 42 0 l 42 521 q 246 693 42 693 m 265 413 l 396 413 l 396 500 q 361 531 396 531 l 300 531 q 265 500 265 531 l 265 413 m 333 835 l 260 739 l 42 739 l 226 947 l 440 947 l 625 739 l 407 739 l 333 835 z "},"ë":{"ha":654,"x_min":42,"x_max":619,"o":"m 246 693 l 415 693 q 619 521 619 693 l 619 285 l 265 285 l 265 193 q 300 163 265 163 l 361 163 q 396 196 396 163 l 396 235 l 619 235 l 619 172 q 415 0 619 0 l 246 0 q 42 172 42 0 l 42 521 q 246 693 42 693 m 265 413 l 396 413 l 396 500 q 361 531 396 531 l 300 531 q 265 500 265 531 l 265 413 m 269 933 l 269 753 l 58 753 l 58 933 l 269 933 m 603 933 l 603 753 l 392 753 l 392 933 l 603 933 z "},"ì":{"ha":347,"x_min":-100,"x_max":292,"o":"m 136 947 l 271 739 l 85 739 l -100 947 l 136 947 m 292 0 l 56 0 l 56 693 l 292 693 l 292 0 z "},"í":{"ha":347,"x_min":56,"x_max":446,"o":"m 75 739 l 210 947 l 446 947 l 261 739 l 75 739 m 292 0 l 56 0 l 56 693 l 292 693 l 292 0 z "},"î":{"ha":347,"x_min":-121,"x_max":463,"o":"m -121 739 l 64 947 l 278 947 l 463 739 l 244 739 l 171 835 l 97 739 l -121 739 m 292 0 l 56 0 l 56 693 l 292 693 l 292 0 z "},"ï":{"ha":347,"x_min":-103,"x_max":442,"o":"m 231 753 l 231 933 l 442 933 l 442 753 l 231 753 m -103 753 l -103 933 l 108 933 l 108 753 l -103 753 m 292 0 l 56 0 l 56 693 l 292 693 l 292 0 z "},"ð":{"ha":686,"x_min":42,"x_max":635,"o":"m 635 426 l 635 172 q 431 0 635 0 l 246 0 q 42 172 42 0 l 42 421 q 246 593 42 593 l 369 593 q 321 682 350 642 l 160 633 l 160 750 l 243 775 q 93 892 189 828 l 419 892 q 472 844 447 869 l 593 881 l 593 764 l 544 750 q 635 426 635 603 m 403 204 l 403 433 l 313 433 q 278 403 278 433 l 278 204 q 313 174 278 174 l 368 174 q 403 204 403 174 z "},"ñ":{"ha":672,"x_min":51,"x_max":624,"o":"m 414 693 l 439 693 q 624 521 624 693 l 624 0 l 388 0 l 388 489 q 353 519 388 519 l 329 519 q 292 478 292 519 l 292 0 l 56 0 l 56 693 l 288 693 l 288 604 q 414 693 307 693 m 239 782 l 239 739 l 51 739 l 51 815 q 83 914 51 881 q 189 947 114 947 l 215 947 q 319 911 263 947 q 385 875 376 875 q 410 904 410 875 l 410 947 l 597 947 l 597 864 q 565 769 597 800 q 457 739 533 739 l 433 739 q 329 775 386 739 q 264 811 272 811 q 239 782 239 811 z "},"ò":{"ha":668,"x_min":49,"x_max":619,"o":"m 246 693 l 422 693 q 574 649 528 693 q 619 521 619 604 l 619 172 q 574 44 619 89 q 422 0 528 0 l 246 0 q 94 44 140 0 q 49 172 49 89 l 49 521 q 94 649 49 604 q 246 693 140 693 m 388 194 l 388 499 q 353 529 388 529 l 315 529 q 281 499 281 529 l 281 194 q 315 164 281 164 l 353 164 q 388 194 388 164 m 421 739 l 235 739 l 50 947 l 286 947 l 421 739 z "},"ó":{"ha":668,"x_min":49,"x_max":621,"o":"m 246 693 l 422 693 q 574 649 528 693 q 619 521 619 604 l 619 172 q 574 44 619 89 q 422 0 528 0 l 246 0 q 94 44 140 0 q 49 172 49 89 l 49 521 q 94 649 49 604 q 246 693 140 693 m 388 194 l 388 499 q 353 529 388 529 l 315 529 q 281 499 281 529 l 281 194 q 315 164 281 164 l 353 164 q 388 194 388 164 m 621 947 l 436 739 l 250 739 l 385 947 l 621 947 z "},"ô":{"ha":668,"x_min":43,"x_max":626,"o":"m 246 693 l 422 693 q 574 649 528 693 q 619 521 619 604 l 619 172 q 574 44 619 89 q 422 0 528 0 l 246 0 q 94 44 140 0 q 49 172 49 89 l 49 521 q 94 649 49 604 q 246 693 140 693 m 388 194 l 388 499 q 353 529 388 529 l 315 529 q 281 499 281 529 l 281 194 q 315 164 281 164 l 353 164 q 388 194 388 164 m 335 835 l 261 739 l 43 739 l 228 947 l 442 947 l 626 739 l 408 739 l 335 835 z "},"õ":{"ha":668,"x_min":49,"x_max":619,"o":"m 246 693 l 422 693 q 574 649 528 693 q 619 521 619 604 l 619 172 q 574 44 619 89 q 422 0 528 0 l 246 0 q 94 44 140 0 q 49 172 49 89 l 49 521 q 94 649 49 604 q 246 693 140 693 m 388 194 l 388 499 q 353 529 388 529 l 315 529 q 281 499 281 529 l 281 194 q 315 164 281 164 l 353 164 q 388 194 388 164 m 243 782 l 243 739 l 56 739 l 56 815 q 87 914 56 881 q 193 947 118 947 l 219 947 q 324 911 267 947 q 389 875 381 875 q 414 904 414 875 l 414 947 l 601 947 l 601 864 q 569 769 601 800 q 461 739 538 739 l 438 739 q 333 775 390 739 q 268 811 276 811 q 243 782 243 811 z "},"ö":{"ha":668,"x_min":49,"x_max":619,"o":"m 246 693 l 422 693 q 574 649 528 693 q 619 521 619 604 l 619 172 q 574 44 619 89 q 422 0 528 0 l 246 0 q 94 44 140 0 q 49 172 49 89 l 49 521 q 94 649 49 604 q 246 693 140 693 m 388 194 l 388 499 q 353 529 388 529 l 315 529 q 281 499 281 529 l 281 194 q 315 164 281 164 l 353 164 q 388 194 388 164 m 274 933 l 274 753 l 63 753 l 63 933 l 274 933 m 607 933 l 607 753 l 396 753 l 396 933 l 607 933 z "},"÷":{"ha":740,"x_min":35,"x_max":706,"o":"m 257 301 l 483 301 l 483 142 l 257 142 l 257 301 m 257 746 l 483 746 l 483 586 l 257 586 l 257 746 m 35 357 l 35 531 l 706 531 l 706 357 l 35 357 z "},"ø":{"ha":668,"x_min":35,"x_max":635,"o":"m 619 521 l 619 172 q 574 44 619 89 q 422 0 528 0 l 246 0 q 163 10 196 0 l 138 -28 l 35 -28 l 88 51 q 49 172 49 92 l 49 521 q 94 649 49 604 q 246 693 140 693 l 422 693 q 507 683 474 693 l 532 721 l 635 721 l 582 640 q 619 521 619 599 m 274 506 l 274 332 l 394 513 q 360 536 390 536 l 308 536 q 274 506 274 536 m 394 188 l 394 360 l 275 178 q 308 157 279 157 l 360 157 q 394 188 394 157 z "},"ù":{"ha":672,"x_min":49,"x_max":617,"o":"m 381 693 l 617 693 l 617 0 l 385 0 l 385 89 q 258 0 365 0 l 233 0 q 49 172 49 0 l 49 693 l 285 693 l 285 204 q 319 174 285 174 l 343 174 q 381 215 381 174 l 381 693 m 433 739 l 247 739 l 63 947 l 299 947 l 433 739 z "},"ú":{"ha":672,"x_min":49,"x_max":617,"o":"m 381 693 l 617 693 l 617 0 l 385 0 l 385 89 q 258 0 365 0 l 233 0 q 49 172 49 0 l 49 693 l 285 693 l 285 204 q 319 174 285 174 l 343 174 q 381 215 381 174 l 381 693 m 597 947 l 413 739 l 226 739 l 361 947 l 597 947 z "},"û":{"ha":672,"x_min":43,"x_max":626,"o":"m 381 693 l 617 693 l 617 0 l 385 0 l 385 89 q 258 0 365 0 l 233 0 q 49 172 49 0 l 49 693 l 285 693 l 285 204 q 319 174 285 174 l 343 174 q 381 215 381 174 l 381 693 m 335 835 l 261 739 l 43 739 l 228 947 l 442 947 l 626 739 l 408 739 l 335 835 z "},"ü":{"ha":694,"x_min":49,"x_max":617,"o":"m 381 693 l 617 693 l 617 0 l 385 0 l 385 89 q 258 0 365 0 l 233 0 q 49 172 49 0 l 49 693 l 285 693 l 285 204 q 319 174 285 174 l 343 174 q 381 215 381 174 l 381 693 m 271 933 l 271 753 l 60 753 l 60 933 l 271 933 m 604 933 l 604 753 l 393 753 l 393 933 l 604 933 z "},"ý":{"ha":644,"x_min":0,"x_max":644,"o":"m 231 739 l 365 947 l 601 947 l 417 739 l 231 739 m 208 -179 l 92 -179 l 92 -8 l 194 -8 q 247 3 228 -8 q 281 56 267 14 l 190 56 l 0 693 l 247 693 l 332 271 l 407 693 l 644 693 l 471 14 q 382 -131 442 -82 q 208 -179 322 -179 z "},"þ":{"ha":679,"x_min":47,"x_max":615,"o":"m 406 693 l 431 693 q 615 521 615 693 l 615 172 q 431 0 615 0 l 406 0 q 283 75 310 0 l 283 -179 l 47 -179 l 47 929 l 279 929 l 279 604 q 406 693 299 693 m 379 204 l 379 489 q 344 519 379 519 l 321 519 q 283 478 283 519 l 283 215 q 321 174 283 174 l 344 174 q 379 204 379 174 z "},"ÿ":{"ha":694,"x_min":0,"x_max":644,"o":"m 208 -179 l 92 -179 l 92 -8 l 194 -8 q 247 3 228 -8 q 281 56 267 14 l 190 56 l 0 693 l 247 693 l 332 271 l 407 693 l 644 693 l 471 14 q 382 -131 442 -82 q 208 -179 322 -179 m 386 753 l 386 933 l 597 933 l 597 753 l 386 753 m 53 753 l 53 933 l 264 933 l 264 753 l 53 753 z "},"Ā":{"ha":754,"x_min":0,"x_max":754,"o":"m 510 0 l 482 133 l 268 133 l 239 0 l 0 0 l 229 892 l 525 892 l 754 0 l 510 0 m 306 306 l 444 306 l 376 626 l 306 306 m 647 1085 l 647 938 l 107 938 l 107 1085 l 647 1085 z "},"ā":{"ha":665,"x_min":42,"x_max":610,"o":"m 378 693 l 610 693 l 610 0 l 374 0 l 374 75 q 251 0 347 0 l 226 0 q 42 172 42 0 l 42 521 q 226 693 42 693 l 251 693 q 378 604 358 693 l 378 693 m 313 174 l 336 174 q 374 215 374 174 l 374 478 q 336 519 374 519 l 313 519 q 278 489 278 519 l 278 204 q 313 174 278 174 m 603 918 l 603 771 l 63 771 l 63 918 l 603 918 z "},"Ă":{"ha":754,"x_min":0,"x_max":754,"o":"m 510 0 l 482 133 l 268 133 l 239 0 l 0 0 l 229 892 l 525 892 l 754 0 l 510 0 m 306 306 l 444 306 l 376 626 l 306 306 m 446 938 l 307 938 q 103 1110 103 938 l 103 1146 l 311 1146 l 311 1100 q 346 1069 311 1069 l 407 1069 q 442 1100 442 1069 l 442 1146 l 650 1146 l 650 1110 q 446 938 650 938 z "},"ă":{"ha":665,"x_min":42,"x_max":635,"o":"m 426 947 l 635 947 l 635 911 q 431 739 635 739 l 292 739 q 88 911 88 739 l 88 947 l 296 947 l 296 901 q 331 871 296 871 l 392 871 q 426 901 426 871 l 426 947 m 378 693 l 610 693 l 610 0 l 374 0 l 374 75 q 251 0 347 0 l 226 0 q 42 172 42 0 l 42 521 q 226 693 42 693 l 251 693 q 378 604 358 693 l 378 693 m 313 174 l 336 174 q 374 215 374 174 l 374 478 q 336 519 374 519 l 313 519 q 278 489 278 519 l 278 204 q 313 174 278 174 z "},"Ą":{"ha":754,"x_min":0,"x_max":782,"o":"m 656 -246 l 782 -246 l 782 -381 l 622 -381 q 498 -344 533 -381 q 463 -235 463 -307 l 463 -168 q 498 -60 463 -97 q 622 -24 533 -24 l 631 -24 l 631 0 l 510 0 l 482 133 l 268 133 l 239 0 l 0 0 l 229 892 l 525 892 l 749 21 l 757 21 l 757 -158 l 656 -158 q 626 -183 626 -158 l 626 -221 q 656 -246 626 -246 m 306 306 l 444 306 l 376 626 l 306 306 z "},"ą":{"ha":665,"x_min":42,"x_max":635,"o":"m 508 -246 l 635 -246 l 635 -381 l 475 -381 q 351 -344 386 -381 q 315 -235 315 -307 l 315 -168 q 351 -60 315 -97 q 475 -24 386 -24 l 483 -24 l 483 0 l 374 0 l 374 75 q 251 0 347 0 l 226 0 q 42 172 42 0 l 42 521 q 226 693 42 693 l 251 693 q 378 604 358 693 l 378 693 l 610 693 l 610 -158 l 508 -158 q 479 -183 479 -158 l 479 -221 q 508 -246 479 -246 m 313 174 l 336 174 q 374 215 374 174 l 374 478 q 336 519 374 519 l 313 519 q 278 489 278 519 l 278 204 q 313 174 278 174 z "},"Ć":{"ha":688,"x_min":49,"x_max":653,"o":"m 653 558 l 410 558 l 410 701 q 375 732 410 732 l 326 732 q 292 701 292 732 l 292 190 q 326 160 292 160 l 375 160 q 410 190 410 160 l 410 328 l 653 328 l 653 172 q 449 0 653 0 l 253 0 q 49 172 49 0 l 49 719 q 253 892 49 892 l 449 892 q 653 719 653 892 l 653 558 m 625 1146 l 440 938 l 254 938 l 389 1146 l 625 1146 z "},"ć":{"ha":626,"x_min":42,"x_max":601,"o":"m 246 693 l 394 693 q 599 521 599 693 l 599 425 l 371 425 l 371 489 q 336 519 371 519 l 313 519 q 278 489 278 519 l 278 204 q 313 174 278 174 l 336 174 q 371 204 371 174 l 371 268 l 599 268 l 599 172 q 394 0 599 0 l 246 0 q 42 172 42 0 l 42 521 q 246 693 42 693 m 601 947 l 417 739 l 231 739 l 365 947 l 601 947 z "},"Č":{"ha":688,"x_min":49,"x_max":653,"o":"m 653 558 l 410 558 l 410 701 q 375 732 410 732 l 326 732 q 292 701 292 732 l 292 190 q 326 160 292 160 l 375 160 q 410 190 410 160 l 410 328 l 653 328 l 653 172 q 449 0 653 0 l 253 0 q 49 172 49 0 l 49 719 q 253 892 49 892 l 449 892 q 653 719 653 892 l 653 558 m 454 938 l 240 938 l 56 1146 l 274 1146 l 347 1050 l 421 1146 l 639 1146 l 454 938 z "},"č":{"ha":626,"x_min":22,"x_max":606,"o":"m 246 693 l 394 693 q 599 521 599 693 l 599 425 l 371 425 l 371 489 q 336 519 371 519 l 313 519 q 278 489 278 519 l 278 204 q 313 174 278 174 l 336 174 q 371 204 371 174 l 371 268 l 599 268 l 599 172 q 394 0 599 0 l 246 0 q 42 172 42 0 l 42 521 q 246 693 42 693 m 421 739 l 207 739 l 22 947 l 240 947 l 314 851 l 388 947 l 606 947 l 421 739 z "},"Ď":{"ha":735,"x_min":69,"x_max":683,"o":"m 69 892 l 479 892 q 683 719 683 892 l 683 172 q 479 0 683 0 l 69 0 l 69 892 m 440 190 l 440 701 q 406 732 440 732 l 313 732 l 313 160 l 406 160 q 440 190 440 160 m 468 938 l 254 938 l 69 1146 l 288 1146 l 361 1050 l 435 1146 l 653 1146 l 468 938 z "},"ď":{"ha":722,"x_min":42,"x_max":826,"o":"m 665 929 l 826 929 l 826 822 l 721 633 l 665 633 l 665 929 m 374 929 l 610 929 l 610 0 l 378 0 l 378 89 q 251 0 358 0 l 226 0 q 42 172 42 0 l 42 521 q 226 693 42 693 l 251 693 q 374 618 347 693 l 374 929 m 313 174 l 336 174 q 374 215 374 174 l 374 478 q 336 519 374 519 l 313 519 q 278 489 278 519 l 278 204 q 313 174 278 174 z "},"Đ":{"ha":746,"x_min":-7,"x_max":683,"o":"m 69 892 l 479 892 q 683 719 683 892 l 683 172 q 479 0 683 0 l 69 0 l 69 374 l -7 374 l -7 533 l 69 533 l 69 892 m 440 204 l 440 688 q 406 718 440 718 l 313 718 l 313 533 l 389 533 l 389 374 l 313 374 l 313 174 l 406 174 q 440 204 440 174 z "},"đ":{"ha":672,"x_min":49,"x_max":686,"o":"m 686 864 l 686 760 l 617 760 l 617 0 l 385 0 l 385 89 q 258 0 365 0 l 233 0 q 49 172 49 0 l 49 521 q 233 693 49 693 l 258 693 q 381 618 354 693 l 381 760 l 297 760 l 297 864 l 381 864 l 381 929 l 617 929 l 617 864 l 686 864 m 319 174 l 343 174 q 381 215 381 174 l 381 478 q 343 519 381 519 l 319 519 q 285 489 285 519 l 285 204 q 319 174 285 174 z "},"Ē":{"ha":624,"x_min":50,"x_max":603,"o":"m 299 174 l 603 174 l 603 0 l 56 0 l 56 892 l 590 892 l 590 718 l 299 718 l 299 536 l 550 536 l 550 363 l 299 363 l 299 174 m 590 1085 l 590 938 l 50 938 l 50 1085 l 590 1085 z "},"ē":{"ha":654,"x_min":42,"x_max":619,"o":"m 246 693 l 415 693 q 619 521 619 693 l 619 285 l 265 285 l 265 193 q 300 163 265 163 l 361 163 q 396 196 396 163 l 396 235 l 619 235 l 619 172 q 415 0 619 0 l 246 0 q 42 172 42 0 l 42 521 q 246 693 42 693 m 265 413 l 396 413 l 396 500 q 361 531 396 531 l 300 531 q 265 500 265 531 l 265 413 m 597 918 l 597 771 l 57 771 l 57 918 l 597 918 z "},"Ė":{"ha":624,"x_min":56,"x_max":603,"o":"m 299 174 l 603 174 l 603 0 l 56 0 l 56 892 l 590 892 l 590 718 l 299 718 l 299 536 l 550 536 l 550 363 l 299 363 l 299 174 m 444 1118 l 444 938 l 219 938 l 219 1118 l 444 1118 z "},"ė":{"ha":654,"x_min":42,"x_max":619,"o":"m 246 693 l 415 693 q 619 521 619 693 l 619 285 l 265 285 l 265 193 q 300 163 265 163 l 361 163 q 396 196 396 163 l 396 235 l 619 235 l 619 172 q 415 0 619 0 l 246 0 q 42 172 42 0 l 42 521 q 246 693 42 693 m 265 413 l 396 413 l 396 500 q 361 531 396 531 l 300 531 q 265 500 265 531 l 265 413 m 440 933 l 440 753 l 215 753 l 215 933 l 440 933 z "},"Ę":{"ha":624,"x_min":56,"x_max":629,"o":"m 503 -246 l 629 -246 l 629 -381 l 469 -381 q 345 -344 381 -381 q 310 -235 310 -307 l 310 -168 q 345 -60 310 -97 q 469 -24 381 -24 l 478 -24 l 478 0 l 56 0 l 56 892 l 590 892 l 590 718 l 299 718 l 299 536 l 550 536 l 550 363 l 299 363 l 299 174 l 603 174 l 603 21 l 604 21 l 604 -158 l 503 -158 q 474 -183 474 -158 l 474 -221 q 503 -246 474 -246 z "},"ę":{"ha":654,"x_min":42,"x_max":619,"o":"m 246 693 l 415 693 q 619 521 619 693 l 619 285 l 265 285 l 265 193 q 300 163 265 163 l 361 163 q 396 196 396 163 l 396 235 l 619 235 l 619 172 q 415 0 619 0 l 413 0 l 413 -158 l 311 -158 q 282 -183 282 -158 l 282 -221 q 311 -246 282 -246 l 438 -246 l 438 -381 l 278 -381 q 153 -344 189 -381 q 118 -235 118 -307 l 118 -168 q 153 -60 118 -97 q 278 -24 189 -24 l 286 -24 l 286 0 l 246 0 q 42 172 42 0 l 42 521 q 246 693 42 693 m 265 413 l 396 413 l 396 500 q 361 531 396 531 l 300 531 q 265 500 265 531 l 265 413 z "},"Ě":{"ha":624,"x_min":40,"x_max":624,"o":"m 299 363 l 299 174 l 603 174 l 603 0 l 56 0 l 56 892 l 590 892 l 590 718 l 299 718 l 299 536 l 550 536 l 550 363 l 299 363 m 439 938 l 225 938 l 40 1146 l 258 1146 l 332 1050 l 406 1146 l 624 1146 l 439 938 z "},"ě":{"ha":654,"x_min":40,"x_max":624,"o":"m 246 693 l 415 693 q 619 521 619 693 l 619 285 l 265 285 l 265 193 q 300 163 265 163 l 361 163 q 396 196 396 163 l 396 235 l 619 235 l 619 172 q 415 0 619 0 l 246 0 q 42 172 42 0 l 42 521 q 246 693 42 693 m 265 413 l 396 413 l 396 500 q 361 531 396 531 l 300 531 q 265 500 265 531 l 265 413 m 439 739 l 225 739 l 40 947 l 258 947 l 332 851 l 406 947 l 624 947 l 439 739 z "},"Ğ":{"ha":696,"x_min":49,"x_max":654,"o":"m 654 586 l 411 586 l 411 701 q 376 732 411 732 l 326 732 q 292 701 292 732 l 292 190 q 326 160 292 160 l 376 160 q 411 190 411 160 l 411 339 l 342 339 l 342 493 l 654 493 l 654 172 q 450 0 654 0 l 253 0 q 49 172 49 0 l 49 719 q 253 892 49 892 l 450 892 q 654 719 654 892 l 654 586 m 421 938 l 282 938 q 78 1110 78 938 l 78 1146 l 286 1146 l 286 1100 q 321 1069 286 1069 l 382 1069 q 417 1100 417 1069 l 417 1146 l 625 1146 l 625 1110 q 421 938 625 938 z "},"ğ":{"ha":665,"x_min":42,"x_max":610,"o":"m 378 693 l 610 693 l 610 -7 q 406 -179 610 -179 l 74 -179 l 74 -12 l 339 -12 q 374 18 374 -12 l 374 117 q 251 42 347 42 l 226 42 q 42 214 42 42 l 42 521 q 226 693 42 693 l 251 693 q 378 604 358 693 l 378 693 m 313 215 l 336 215 q 374 257 374 215 l 374 478 q 336 519 374 519 l 313 519 q 278 489 278 519 l 278 246 q 313 215 278 215 m 401 739 l 263 739 q 58 911 58 739 l 58 947 l 267 947 l 267 901 q 301 871 267 871 l 363 871 q 397 901 397 871 l 397 947 l 606 947 l 606 911 q 401 739 606 739 z "},"Ģ":{"ha":696,"x_min":49,"x_max":654,"o":"m 654 586 l 411 586 l 411 701 q 376 732 411 732 l 326 732 q 292 701 292 732 l 292 190 q 326 160 292 160 l 376 160 q 411 190 411 160 l 411 339 l 342 339 l 342 493 l 654 493 l 654 172 q 450 0 654 0 l 253 0 q 49 172 49 0 l 49 719 q 253 892 49 892 l 450 892 q 654 719 654 892 l 654 586 m 250 -415 l 250 -64 l 482 -64 l 482 -185 l 322 -415 l 250 -415 z "},"ģ":{"ha":665,"x_min":42,"x_max":610,"o":"m 378 693 l 610 693 l 610 -7 q 406 -179 610 -179 l 74 -179 l 74 -12 l 339 -12 q 374 18 374 -12 l 374 117 q 251 42 347 42 l 226 42 q 42 214 42 42 l 42 521 q 226 693 42 693 l 251 693 q 378 604 358 693 l 378 693 m 313 215 l 336 215 q 374 257 374 215 l 374 478 q 336 519 374 519 l 313 519 q 278 489 278 519 l 278 246 q 313 215 278 215 m 465 1089 l 465 738 l 233 738 l 233 858 l 393 1089 l 465 1089 z "},"Ī":{"ha":354,"x_min":-92,"x_max":449,"o":"m -92 938 l -92 1085 l 449 1085 l 449 938 l -92 938 m 56 892 l 299 892 l 299 0 l 56 0 l 56 892 z "},"ī":{"ha":347,"x_min":-97,"x_max":443,"o":"m -97 771 l -97 918 l 443 918 l 443 771 l -97 771 m 292 0 l 56 0 l 56 693 l 292 693 l 292 0 z "},"Į":{"ha":354,"x_min":4,"x_max":324,"o":"m 197 -246 l 324 -246 l 324 -381 l 164 -381 q 40 -344 75 -381 q 4 -235 4 -307 l 4 -168 q 40 -60 4 -97 q 164 -24 75 -24 l 172 -24 l 172 0 l 56 0 l 56 892 l 299 892 l 299 -158 l 197 -158 q 168 -183 168 -158 l 168 -221 q 197 -246 168 -246 z "},"į":{"ha":347,"x_min":-3,"x_max":317,"o":"m 190 -246 l 317 -246 l 317 -381 l 157 -381 q 33 -344 68 -381 q -3 -235 -3 -307 l -3 -168 q 33 -60 -3 -97 q 157 -24 68 -24 l 165 -24 l 165 0 l 56 0 l 56 693 l 292 693 l 292 -158 l 190 -158 q 161 -183 161 -158 l 161 -221 q 190 -246 161 -246 m 296 929 l 296 763 l 51 763 l 51 929 l 296 929 z "},"İ":{"ha":354,"x_min":56,"x_max":299,"o":"m 65 938 l 65 1118 l 290 1118 l 290 938 l 65 938 m 56 892 l 299 892 l 299 0 l 56 0 l 56 892 z "},"ı":{"ha":347,"x_min":56,"x_max":292,"o":"m 292 0 l 56 0 l 56 693 l 292 693 l 292 0 z "},"Ķ":{"ha":736,"x_min":56,"x_max":728,"o":"m 240 -415 l 240 -64 l 472 -64 l 472 -185 l 313 -415 l 240 -415 m 299 892 l 299 0 l 56 0 l 56 892 l 299 892 m 728 0 l 467 0 l 300 456 l 465 892 l 726 892 l 553 456 l 728 0 z "},"ķ":{"ha":660,"x_min":56,"x_max":667,"o":"m 292 0 l 56 0 l 56 929 l 292 929 l 292 378 l 422 693 l 667 693 l 518 351 l 667 0 l 421 0 l 292 324 l 292 0 m 228 -415 l 228 -64 l 460 -64 l 460 -185 l 300 -415 l 228 -415 z "},"Ĺ":{"ha":575,"x_min":56,"x_max":575,"o":"m 299 174 l 575 174 l 575 0 l 56 0 l 56 892 l 299 892 l 299 174 m 461 1146 l 276 938 l 90 938 l 225 1146 l 461 1146 z "},"ĺ":{"ha":347,"x_min":56,"x_max":449,"o":"m 292 0 l 56 0 l 56 929 l 292 929 l 292 0 m 78 975 l 213 1183 l 449 1183 l 264 975 l 78 975 z "},"Ļ":{"ha":575,"x_min":56,"x_max":575,"o":"m 299 174 l 575 174 l 575 0 l 56 0 l 56 892 l 299 892 l 299 174 m 197 -415 l 197 -64 l 429 -64 l 429 -185 l 269 -415 l 197 -415 z "},"ļ":{"ha":347,"x_min":56,"x_max":292,"o":"m 57 -64 l 289 -64 l 289 -185 l 129 -415 l 57 -415 l 57 -64 m 292 0 l 56 0 l 56 929 l 292 929 l 292 0 z "},"Ľ":{"ha":575,"x_min":-115,"x_max":575,"o":"m 299 174 l 575 174 l 575 0 l 56 0 l 56 892 l 299 892 l 299 174 m 283 938 l 69 938 l -115 1146 l 103 1146 l 176 1050 l 250 1146 l 468 1146 l 283 938 z "},"ľ":{"ha":417,"x_min":56,"x_max":508,"o":"m 292 0 l 56 0 l 56 929 l 292 929 l 292 0 m 347 929 l 508 929 l 508 822 l 403 633 l 347 633 l 347 929 z "},"Ł":{"ha":603,"x_min":-54,"x_max":589,"o":"m 313 174 l 589 174 l 589 0 l 69 0 l 69 329 l -54 269 l -54 429 l 69 489 l 69 892 l 313 892 l 313 606 l 465 679 l 465 519 l 313 446 l 313 174 z "},"ł":{"ha":361,"x_min":-76,"x_max":443,"o":"m 299 0 l 63 0 l 63 392 l -76 325 l -76 485 l 63 551 l 63 929 l 299 929 l 299 665 l 443 735 l 443 575 l 299 506 l 299 0 z "},"Ń":{"ha":740,"x_min":56,"x_max":685,"o":"m 463 892 l 685 892 l 685 0 l 476 0 l 278 468 l 278 0 l 56 0 l 56 892 l 264 892 l 463 415 l 463 892 m 261 938 l 396 1146 l 632 1146 l 447 938 l 261 938 z "},"ń":{"ha":672,"x_min":56,"x_max":624,"o":"m 414 693 l 439 693 q 624 521 624 693 l 624 0 l 388 0 l 388 489 q 353 519 388 519 l 329 519 q 292 478 292 519 l 292 0 l 56 0 l 56 693 l 288 693 l 288 604 q 414 693 307 693 m 588 947 l 403 739 l 217 739 l 351 947 l 588 947 z "},"Ņ":{"ha":740,"x_min":56,"x_max":685,"o":"m 243 -64 l 475 -64 l 475 -185 l 315 -415 l 243 -415 l 243 -64 m 463 892 l 685 892 l 685 0 l 476 0 l 278 468 l 278 0 l 56 0 l 56 892 l 264 892 l 463 415 l 463 892 z "},"ņ":{"ha":672,"x_min":56,"x_max":624,"o":"m 414 693 l 439 693 q 624 521 624 693 l 624 0 l 388 0 l 388 489 q 353 519 388 519 l 329 519 q 292 478 292 519 l 292 0 l 56 0 l 56 693 l 288 693 l 288 604 q 414 693 307 693 m 225 -415 l 225 -64 l 457 -64 l 457 -185 l 297 -415 l 225 -415 z "},"Ň":{"ha":740,"x_min":56,"x_max":685,"o":"m 463 892 l 685 892 l 685 0 l 476 0 l 278 468 l 278 0 l 56 0 l 56 892 l 264 892 l 463 415 l 463 892 m 260 936 l 75 1144 l 293 1144 l 367 1049 l 440 1144 l 658 1144 l 474 936 l 260 936 z "},"ň":{"ha":672,"x_min":31,"x_max":624,"o":"m 414 693 l 439 693 q 624 521 624 693 l 624 0 l 388 0 l 388 489 q 353 519 388 519 l 329 519 q 292 478 292 519 l 292 0 l 56 0 l 56 693 l 288 693 l 288 604 q 414 693 307 693 m 429 739 l 215 739 l 31 947 l 249 947 l 322 851 l 396 947 l 614 947 l 429 739 z "},"Ō":{"ha":717,"x_min":51,"x_max":665,"o":"m 256 892 l 461 892 q 665 719 665 892 l 665 172 q 461 0 665 0 l 256 0 q 51 172 51 0 l 51 719 q 256 892 51 892 m 422 204 l 422 688 q 388 718 422 718 l 329 718 q 294 688 294 718 l 294 204 q 329 174 294 174 l 388 174 q 422 204 422 174 m 628 1085 l 628 938 l 88 938 l 88 1085 l 628 1085 z "},"ō":{"ha":668,"x_min":49,"x_max":619,"o":"m 246 693 l 422 693 q 574 649 528 693 q 619 521 619 604 l 619 172 q 574 44 619 89 q 422 0 528 0 l 246 0 q 94 44 140 0 q 49 172 49 89 l 49 521 q 94 649 49 604 q 246 693 140 693 m 388 194 l 388 499 q 353 529 388 529 l 315 529 q 281 499 281 529 l 281 194 q 315 164 281 164 l 353 164 q 388 194 388 164 m 593 918 l 593 771 l 53 771 l 53 918 l 593 918 z "},"Ő":{"ha":694,"x_min":51,"x_max":754,"o":"m 256 892 l 461 892 q 665 719 665 892 l 665 172 q 461 0 665 0 l 256 0 q 51 172 51 0 l 51 719 q 256 892 51 892 m 422 204 l 422 688 q 388 718 422 718 l 329 718 q 294 688 294 718 l 294 204 q 329 174 294 174 l 388 174 q 422 204 422 174 m 490 1144 l 306 936 l 151 936 l 286 1144 l 490 1144 m 569 936 l 415 936 l 550 1144 l 754 1144 l 569 936 z "},"ő":{"ha":668,"x_min":49,"x_max":718,"o":"m 246 693 l 422 693 q 574 649 528 693 q 619 521 619 604 l 619 172 q 574 44 619 89 q 422 0 528 0 l 246 0 q 94 44 140 0 q 49 172 49 89 l 49 521 q 94 649 49 604 q 246 693 140 693 m 388 194 l 388 499 q 353 529 388 529 l 315 529 q 281 499 281 529 l 281 194 q 315 164 281 164 l 353 164 q 388 194 388 164 m 454 947 l 269 739 l 115 739 l 250 947 l 454 947 m 533 739 l 379 739 l 514 947 l 718 947 l 533 739 z "},"Œ":{"ha":1028,"x_min":90,"x_max":981,"o":"m 676 160 l 981 160 l 981 0 l 503 0 l 503 28 q 403 0 464 0 l 294 0 q 90 172 90 0 l 90 719 q 294 892 90 892 l 403 892 q 503 864 464 892 l 503 892 l 968 892 l 968 732 l 676 732 l 676 529 l 928 529 l 928 369 l 676 369 l 676 160 m 461 190 l 461 701 q 426 732 461 732 l 368 732 q 333 701 333 732 l 333 190 q 368 160 333 160 l 426 160 q 461 190 461 160 z "},"œ":{"ha":1157,"x_min":49,"x_max":958,"o":"m 668 693 l 754 693 q 958 521 958 693 l 958 279 l 610 279 l 610 197 q 644 167 610 167 l 694 167 q 729 197 729 167 l 729 232 l 958 232 l 958 172 q 754 0 958 0 l 667 0 q 485 78 532 0 q 422 21 465 42 q 326 0 378 0 l 233 0 q 49 172 49 0 l 49 521 q 233 693 49 693 l 328 693 q 423 672 379 693 q 486 615 467 651 q 668 693 533 693 m 381 215 l 381 478 q 343 519 381 519 l 319 519 q 285 489 285 519 l 285 204 q 319 174 285 174 l 343 174 q 381 215 381 174 m 610 417 l 729 417 l 729 496 q 694 526 729 526 l 644 526 q 610 496 610 526 l 610 417 z "},"Ŕ":{"ha":714,"x_min":56,"x_max":717,"o":"m 299 317 l 299 0 l 56 0 l 56 892 l 468 892 q 672 719 672 892 l 672 489 q 553 326 672 357 l 717 0 l 456 0 l 314 317 l 299 317 m 394 718 l 299 718 l 299 482 l 394 482 q 429 513 429 482 l 429 688 q 394 718 429 718 m 615 1144 l 431 936 l 244 936 l 379 1144 l 615 1144 z "},"ŕ":{"ha":465,"x_min":56,"x_max":532,"o":"m 288 693 l 288 586 q 338 669 299 639 q 438 700 376 700 l 458 700 l 458 494 l 379 494 q 292 400 292 494 l 292 0 l 56 0 l 56 693 l 288 693 m 532 947 l 347 739 l 161 739 l 296 947 l 532 947 z "},"Ŗ":{"ha":714,"x_min":56,"x_max":717,"o":"m 228 -415 l 228 -64 l 460 -64 l 460 -185 l 300 -415 l 228 -415 m 299 317 l 299 0 l 56 0 l 56 892 l 468 892 q 672 719 672 892 l 672 489 q 553 326 672 357 l 717 0 l 456 0 l 314 317 l 299 317 m 394 718 l 299 718 l 299 482 l 394 482 q 429 513 429 482 l 429 688 q 394 718 429 718 z "},"ŗ":{"ha":465,"x_min":56,"x_max":458,"o":"m 438 700 l 458 700 l 458 494 l 379 494 q 292 400 292 494 l 292 0 l 56 0 l 56 693 l 288 693 l 288 586 q 338 669 299 639 q 438 700 376 700 m 57 -415 l 57 -64 l 289 -64 l 289 -185 l 129 -415 l 57 -415 z "},"Ř":{"ha":714,"x_min":56,"x_max":717,"o":"m 299 317 l 299 0 l 56 0 l 56 892 l 468 892 q 672 719 672 892 l 672 489 q 553 326 672 357 l 717 0 l 456 0 l 314 317 l 299 317 m 394 718 l 299 718 l 299 482 l 394 482 q 429 513 429 482 l 429 688 q 394 718 429 718 m 460 936 l 246 936 l 61 1144 l 279 1144 l 353 1049 l 426 1144 l 644 1144 l 460 936 z "},"ř":{"ha":465,"x_min":-36,"x_max":547,"o":"m 288 693 l 288 586 q 338 669 299 639 q 438 700 376 700 l 458 700 l 458 494 l 379 494 q 292 400 292 494 l 292 0 l 56 0 l 56 693 l 288 693 m 363 739 l 149 739 l -36 947 l 182 947 l 256 851 l 329 947 l 547 947 l 363 739 z "},"Ś":{"ha":682,"x_min":42,"x_max":640,"o":"m 397 204 l 397 331 q 363 361 397 361 l 229 361 q 84 406 126 361 q 42 536 42 451 l 42 719 q 244 892 42 892 l 435 892 q 638 719 638 892 l 638 613 l 394 613 l 394 688 q 360 718 394 718 l 319 718 q 285 688 285 718 l 285 556 q 319 525 285 525 l 450 525 q 597 482 553 525 q 640 356 640 439 l 640 172 q 438 0 640 0 l 249 0 q 44 172 44 0 l 44 279 l 288 279 l 288 204 q 322 174 288 174 l 363 174 q 397 204 397 174 m 268 938 l 403 1146 l 639 1146 l 454 938 l 268 938 z "},"ś":{"ha":618,"x_min":35,"x_max":596,"o":"m 354 183 l 354 239 q 319 269 354 269 l 235 269 q 35 440 35 269 l 35 521 q 239 693 35 693 l 368 693 q 572 521 572 693 l 572 463 l 347 463 l 347 510 q 313 540 347 540 l 299 540 q 264 510 264 540 l 264 449 q 299 418 264 418 l 383 418 q 537 374 490 418 q 583 249 583 331 l 583 172 q 379 0 583 0 l 243 0 q 39 172 39 0 l 39 229 l 268 229 l 268 183 q 303 153 268 153 l 319 153 q 354 183 354 153 m 225 739 l 360 947 l 596 947 l 411 739 l 225 739 z "},"Ş":{"ha":682,"x_min":42,"x_max":640,"o":"m 217 -64 l 449 -64 l 449 -185 l 289 -415 l 217 -415 l 217 -64 m 397 204 l 397 331 q 363 361 397 361 l 229 361 q 84 406 126 361 q 42 536 42 451 l 42 719 q 244 892 42 892 l 435 892 q 638 719 638 892 l 638 613 l 394 613 l 394 688 q 360 718 394 718 l 319 718 q 285 688 285 718 l 285 556 q 319 525 285 525 l 450 525 q 597 482 553 525 q 640 356 640 439 l 640 172 q 438 0 640 0 l 249 0 q 44 172 44 0 l 44 279 l 288 279 l 288 204 q 322 174 288 174 l 363 174 q 397 204 397 174 z "},"ş":{"ha":618,"x_min":35,"x_max":583,"o":"m 192 -64 l 424 -64 l 424 -185 l 264 -415 l 192 -415 l 192 -64 m 354 183 l 354 239 q 319 269 354 269 l 235 269 q 35 440 35 269 l 35 521 q 239 693 35 693 l 368 693 q 572 521 572 693 l 572 463 l 347 463 l 347 510 q 313 540 347 540 l 299 540 q 264 510 264 540 l 264 449 q 299 418 264 418 l 383 418 q 537 374 490 418 q 583 249 583 331 l 583 172 q 379 0 583 0 l 243 0 q 39 172 39 0 l 39 229 l 268 229 l 268 183 q 303 153 268 153 l 319 153 q 354 183 354 153 z "},"Š":{"ha":682,"x_min":42,"x_max":640,"o":"m 397 204 l 397 331 q 363 361 397 361 l 229 361 q 84 406 126 361 q 42 536 42 451 l 42 719 q 244 892 42 892 l 435 892 q 638 719 638 892 l 638 613 l 394 613 l 394 688 q 360 718 394 718 l 319 718 q 285 688 285 718 l 285 556 q 319 525 285 525 l 450 525 q 597 482 553 525 q 640 356 640 439 l 640 172 q 438 0 640 0 l 249 0 q 44 172 44 0 l 44 279 l 288 279 l 288 204 q 322 174 288 174 l 363 174 q 397 204 397 174 m 233 938 l 49 1146 l 267 1146 l 340 1050 l 414 1146 l 632 1146 l 447 938 l 233 938 z "},"š":{"ha":618,"x_min":17,"x_max":600,"o":"m 354 183 l 354 239 q 319 269 354 269 l 235 269 q 35 440 35 269 l 35 521 q 239 693 35 693 l 368 693 q 572 521 572 693 l 572 463 l 347 463 l 347 510 q 313 540 347 540 l 299 540 q 264 510 264 540 l 264 449 q 299 418 264 418 l 383 418 q 537 374 490 418 q 583 249 583 331 l 583 172 q 379 0 583 0 l 243 0 q 39 172 39 0 l 39 229 l 268 229 l 268 183 q 303 153 268 153 l 319 153 q 354 183 354 153 m 201 739 l 17 947 l 235 947 l 308 851 l 382 947 l 600 947 l 415 739 l 201 739 z "},"Ţ":{"ha":600,"x_min":7,"x_max":593,"o":"m 593 892 l 593 718 l 421 718 l 421 0 l 178 0 l 178 718 l 7 718 l 7 892 l 593 892 m 185 -415 l 185 -64 l 417 -64 l 417 -185 l 257 -415 l 185 -415 z "},"ţ":{"ha":600,"x_min":7,"x_max":593,"o":"m 593 892 l 593 718 l 421 718 l 421 0 l 178 0 l 178 718 l 7 718 l 7 892 l 593 892 m 183 -415 l 183 -64 l 415 -64 l 415 -185 l 256 -415 l 183 -415 z "},"Ť":{"ha":600,"x_min":4,"x_max":593,"o":"m 593 892 l 593 718 l 421 718 l 421 0 l 178 0 l 178 718 l 7 718 l 7 892 l 593 892 m 403 938 l 189 938 l 4 1146 l 222 1146 l 296 1050 l 369 1146 l 588 1146 l 403 938 z "},"ť":{"ha":421,"x_min":7,"x_max":540,"o":"m 379 1015 l 540 1015 l 540 908 l 435 746 l 379 746 l 379 1015 m 319 829 l 319 693 l 407 693 l 407 519 l 319 519 l 319 204 q 354 174 319 174 l 406 174 l 406 0 l 288 0 q 83 172 83 0 l 83 519 l 7 519 l 7 693 l 83 693 l 83 829 l 319 829 z "},"Ū":{"ha":725,"x_min":56,"x_max":669,"o":"m 426 892 l 669 892 l 669 172 q 465 0 669 0 l 260 0 q 56 172 56 0 l 56 892 l 299 892 l 299 204 q 333 174 299 174 l 392 174 q 426 204 426 174 l 426 892 m 633 1085 l 633 938 l 93 938 l 93 1085 l 633 1085 z "},"ū":{"ha":672,"x_min":49,"x_max":617,"o":"m 381 693 l 617 693 l 617 0 l 385 0 l 385 89 q 258 0 365 0 l 233 0 q 49 172 49 0 l 49 693 l 285 693 l 285 204 q 319 174 285 174 l 343 174 q 381 215 381 174 l 381 693 m 601 918 l 601 771 l 61 771 l 61 918 l 601 918 z "},"Ů":{"ha":725,"x_min":56,"x_max":669,"o":"m 426 892 l 669 892 l 669 172 q 465 0 669 0 l 260 0 q 56 172 56 0 l 56 892 l 299 892 l 299 204 q 333 174 299 174 l 392 174 q 426 204 426 174 l 426 892 m 422 936 l 303 936 q 161 1060 161 936 l 161 1082 q 303 1207 161 1207 l 422 1207 q 564 1082 564 1207 l 564 1060 q 422 936 564 936 m 308 1081 l 308 1061 q 336 1035 308 1035 l 389 1035 q 417 1061 417 1035 l 417 1081 q 389 1107 417 1107 l 336 1107 q 308 1081 308 1107 z "},"ů":{"ha":672,"x_min":49,"x_max":617,"o":"m 381 693 l 617 693 l 617 0 l 385 0 l 385 89 q 258 0 365 0 l 233 0 q 49 172 49 0 l 49 693 l 285 693 l 285 204 q 319 174 285 174 l 343 174 q 381 215 381 174 l 381 693 m 406 732 l 286 732 q 144 856 144 732 l 144 878 q 286 1003 144 1003 l 406 1003 q 547 878 547 1003 l 547 856 q 406 732 547 732 m 292 876 l 292 857 q 319 831 292 831 l 372 831 q 400 857 400 831 l 400 876 q 372 903 400 903 l 319 903 q 292 876 292 903 z "},"Ű":{"ha":694,"x_min":56,"x_max":743,"o":"m 426 204 l 426 892 l 669 892 l 669 172 q 465 0 669 0 l 260 0 q 56 172 56 0 l 56 892 l 299 892 l 299 204 q 333 174 299 174 l 392 174 q 426 204 426 174 m 479 1146 l 294 938 l 140 938 l 275 1146 l 479 1146 m 558 938 l 404 938 l 539 1146 l 743 1146 l 558 938 z "},"ű":{"ha":672,"x_min":49,"x_max":728,"o":"m 381 693 l 617 693 l 617 0 l 385 0 l 385 89 q 258 0 365 0 l 233 0 q 49 172 49 0 l 49 693 l 285 693 l 285 204 q 319 174 285 174 l 343 174 q 381 215 381 174 l 381 693 m 464 947 l 279 739 l 125 739 l 260 947 l 464 947 m 543 739 l 389 739 l 524 947 l 728 947 l 543 739 z "},"Ų":{"ha":725,"x_min":56,"x_max":669,"o":"m 426 892 l 669 892 l 669 172 q 465 0 669 0 l 440 0 l 440 -158 l 339 -158 q 310 -183 310 -158 l 310 -221 q 339 -246 310 -246 l 465 -246 l 465 -381 l 306 -381 q 181 -344 217 -381 q 146 -235 146 -307 l 146 -168 q 181 -60 146 -97 q 306 -24 217 -24 l 314 -24 l 314 0 l 260 0 q 56 172 56 0 l 56 892 l 299 892 l 299 204 q 333 174 299 174 l 392 174 q 426 204 426 174 l 426 892 z "},"ų":{"ha":672,"x_min":49,"x_max":642,"o":"m 515 -246 l 642 -246 l 642 -381 l 482 -381 q 358 -344 393 -381 q 322 -235 322 -307 l 322 -168 q 358 -60 322 -97 q 482 -24 393 -24 l 490 -24 l 490 0 l 385 0 l 385 89 q 258 0 365 0 l 233 0 q 49 172 49 0 l 49 693 l 285 693 l 285 204 q 319 174 285 174 l 343 174 q 381 215 381 174 l 381 693 l 617 693 l 617 -158 l 515 -158 q 486 -183 486 -158 l 486 -221 q 515 -246 486 -246 z "},"Ÿ":{"ha":694,"x_min":0,"x_max":721,"o":"m 489 0 l 246 0 l 246 289 l 0 892 l 249 892 l 365 515 l 474 892 l 721 892 l 489 292 l 489 0 m 286 1143 l 286 963 l 75 963 l 75 1143 l 286 1143 m 619 1143 l 619 963 l 408 963 l 408 1143 l 619 1143 z "},"Ź":{"ha":644,"x_min":28,"x_max":617,"o":"m 617 892 l 617 718 l 282 174 l 607 174 l 607 0 l 28 0 l 28 174 l 363 718 l 46 718 l 46 892 l 617 892 m 599 1146 l 414 938 l 228 938 l 363 1146 l 599 1146 z "},"ź":{"ha":543,"x_min":14,"x_max":546,"o":"m 529 165 l 529 0 l 14 0 l 14 165 l 263 528 l 32 528 l 32 693 l 515 693 l 515 528 l 263 165 l 529 165 m 546 947 l 361 739 l 175 739 l 310 947 l 546 947 z "},"Ż":{"ha":644,"x_min":28,"x_max":617,"o":"m 617 892 l 617 718 l 282 174 l 607 174 l 607 0 l 28 0 l 28 174 l 363 718 l 46 718 l 46 892 l 617 892 m 451 1118 l 451 938 l 226 938 l 226 1118 l 451 1118 z "},"ż":{"ha":543,"x_min":14,"x_max":529,"o":"m 529 165 l 529 0 l 14 0 l 14 165 l 263 528 l 32 528 l 32 693 l 515 693 l 515 528 l 263 165 l 529 165 m 392 933 l 392 753 l 167 753 l 167 933 l 392 933 z "},"Ž":{"ha":644,"x_min":28,"x_max":638,"o":"m 46 718 l 46 892 l 617 892 l 617 718 l 282 174 l 607 174 l 607 0 l 28 0 l 28 174 l 363 718 l 46 718 m 453 938 l 239 938 l 54 1146 l 272 1146 l 346 1050 l 419 1146 l 638 1146 l 453 938 z "},"ž":{"ha":543,"x_min":-14,"x_max":569,"o":"m 529 165 l 529 0 l 14 0 l 14 165 l 263 528 l 32 528 l 32 693 l 515 693 l 515 528 l 263 165 l 529 165 m 385 739 l 171 739 l -14 947 l 204 947 l 278 851 l 351 947 l 569 947 l 385 739 z "},"ƒ":{"ha":624,"x_min":11,"x_max":575,"o":"m 575 756 l 501 756 q 467 725 471 756 l 463 693 l 574 693 l 574 519 l 436 519 l 356 -32 q 299 -161 343 -118 q 151 -204 256 -204 l 11 -204 l 11 -31 l 85 -31 q 119 0 115 -31 l 196 519 l 104 519 l 104 693 l 221 693 l 231 757 q 287 886 243 843 q 435 929 331 929 l 575 929 l 575 756 z "},"Ș":{"ha":682,"x_min":42,"x_max":640,"o":"m 219 -64 l 451 -64 l 451 -185 l 292 -415 l 219 -415 l 219 -64 m 397 204 l 397 331 q 363 361 397 361 l 229 361 q 84 406 126 361 q 42 536 42 451 l 42 719 q 244 892 42 892 l 435 892 q 638 719 638 892 l 638 613 l 394 613 l 394 688 q 360 718 394 718 l 319 718 q 285 688 285 718 l 285 556 q 319 525 285 525 l 450 525 q 597 482 553 525 q 640 356 640 439 l 640 172 q 438 0 640 0 l 249 0 q 44 172 44 0 l 44 279 l 288 279 l 288 204 q 322 174 288 174 l 363 174 q 397 204 397 174 z "},"ș":{"ha":618,"x_min":35,"x_max":583,"o":"m 178 -64 l 410 -64 l 410 -185 l 250 -415 l 178 -415 l 178 -64 m 354 183 l 354 239 q 319 269 354 269 l 235 269 q 35 440 35 269 l 35 521 q 239 693 35 693 l 368 693 q 572 521 572 693 l 572 463 l 347 463 l 347 510 q 313 540 347 540 l 299 540 q 264 510 264 540 l 264 449 q 299 418 264 418 l 383 418 q 537 374 490 418 q 583 249 583 331 l 583 172 q 379 0 583 0 l 243 0 q 39 172 39 0 l 39 229 l 268 229 l 268 183 q 303 153 268 153 l 319 153 q 354 183 354 153 z "},"Ț":{"ha":600,"x_min":7,"x_max":593,"o":"m 593 892 l 593 718 l 421 718 l 421 0 l 178 0 l 178 718 l 7 718 l 7 892 l 593 892 m 182 -415 l 182 -64 l 414 -64 l 414 -185 l 254 -415 l 182 -415 z "},"ț":{"ha":421,"x_min":7,"x_max":407,"o":"m 407 519 l 319 519 l 319 204 q 354 174 319 174 l 406 174 l 406 0 l 288 0 q 83 172 83 0 l 83 519 l 7 519 l 7 693 l 83 693 l 83 829 l 319 829 l 319 693 l 407 693 l 407 519 m 114 -415 l 114 -64 l 346 -64 l 346 -185 l 186 -415 l 114 -415 z "},"ˆ":{"ha":694,"x_min":56,"x_max":639,"o":"m 56 739 l 240 947 l 454 947 l 639 739 l 421 739 l 347 835 l 274 739 l 56 739 z "},"ˇ":{"ha":694,"x_min":56,"x_max":639,"o":"m 240 739 l 56 947 l 274 947 l 347 851 l 421 947 l 639 947 l 454 739 l 240 739 z "},"ˉ":{"ha":694,"x_min":76,"x_max":617,"o":"m 76 769 l 76 918 l 617 918 l 617 769 l 76 769 z "},"˘":{"ha":694,"x_min":74,"x_max":621,"o":"m 413 947 l 621 947 l 621 911 q 417 739 621 739 l 278 739 q 74 911 74 739 l 74 947 l 282 947 l 282 901 q 317 871 282 871 l 378 871 q 413 901 413 871 l 413 947 z "},"˙":{"ha":694,"x_min":235,"x_max":460,"o":"m 235 753 l 235 933 l 460 933 l 460 753 l 235 753 z "},"˚":{"ha":694,"x_min":146,"x_max":549,"o":"m 401 833 l 401 853 q 374 879 401 879 l 321 879 q 293 853 293 879 l 293 833 q 321 807 293 807 l 374 807 q 401 833 401 807 m 549 854 l 549 832 q 407 708 549 708 l 288 708 q 146 832 146 708 l 146 854 q 288 979 146 979 l 407 979 q 549 854 549 979 z "},"˛":{"ha":694,"x_min":201,"x_max":521,"o":"m 394 -246 l 521 -246 l 521 -381 l 361 -381 q 237 -344 272 -381 q 201 -235 201 -307 l 201 -168 q 237 -60 201 -97 q 361 -24 272 -24 l 369 -24 l 369 21 l 496 21 l 496 -158 l 394 -158 q 365 -183 365 -158 l 365 -221 q 394 -246 365 -246 z "},"˜":{"ha":694,"x_min":74,"x_max":619,"o":"m 456 739 q 351 775 408 739 q 286 811 294 811 q 261 782 261 811 l 261 739 l 74 739 l 74 815 q 105 914 74 881 q 211 947 136 947 l 238 947 q 342 911 285 947 q 407 875 399 875 q 432 904 432 875 l 432 947 l 619 947 l 619 864 q 588 769 619 800 q 479 739 556 739 l 456 739 z "},"˝":{"ha":694,"x_min":46,"x_max":649,"o":"m 46 739 l 181 947 l 385 947 l 200 739 l 46 739 m 310 739 l 444 947 l 649 947 l 464 739 l 310 739 z "},"π":{"ha":792,"x_min":14,"x_max":778,"o":"m 778 693 l 778 533 l 679 533 l 679 0 l 436 0 l 436 533 l 331 533 l 331 172 q 126 0 331 0 l 14 0 l 14 174 l 60 174 q 94 204 94 174 l 94 693 l 778 693 z "},"ँ":{"ha":0,"x_min":-517,"x_max":178,"o":"m -254 1331 l -85 1331 l -85 1151 l -254 1151 l -254 1331 m -517 1232 l -322 1232 l -322 1132 q -313 1103 -322 1111 q -283 1096 -304 1096 l -56 1096 q -26 1103 -35 1096 q -17 1132 -17 1111 l -17 1232 l 178 1232 l 178 1103 q 130 999 178 1032 q -33 965 82 965 l -306 965 q -469 999 -421 965 q -517 1103 -517 1032 l -517 1232 z "},"ं":{"ha":0,"x_min":-251,"x_max":-82,"o":"m -251 1190 l -82 1190 l -82 1011 l -251 1011 l -251 1190 z "},"ः":{"ha":364,"x_min":97,"x_max":267,"o":"m 97 674 l 267 674 l 267 494 l 97 494 l 97 674 m 97 260 l 267 260 l 267 81 l 97 81 l 97 260 z "},"अ":{"ha":1014,"x_min":71,"x_max":1042,"o":"m 1042 892 l 1042 735 l 958 735 l 958 0 l 722 0 l 722 354 l 629 354 l 629 271 q 586 149 629 190 q 435 108 543 108 l 265 108 q 114 149 157 108 q 71 271 71 190 l 71 385 l 307 385 l 307 293 q 339 265 307 265 l 361 265 q 393 293 393 265 l 393 392 q 361 425 393 425 l 315 425 l 315 582 l 361 582 q 393 615 393 582 l 393 714 q 361 742 393 742 l 339 742 q 307 714 307 742 l 307 636 l 71 636 l 71 736 q 114 858 71 817 q 265 899 157 899 l 435 899 q 586 858 543 899 q 629 736 629 817 l 629 585 q 583 511 629 526 l 722 511 l 722 892 l 1042 892 z "},"आ":{"ha":1361,"x_min":71,"x_max":1389,"o":"m 1389 892 l 1389 735 l 1306 735 l 1306 0 l 1069 0 l 1069 735 l 958 735 l 958 0 l 722 0 l 722 354 l 629 354 l 629 271 q 586 149 629 190 q 435 108 543 108 l 265 108 q 114 149 157 108 q 71 271 71 190 l 71 385 l 307 385 l 307 293 q 339 265 307 265 l 361 265 q 393 293 393 265 l 393 392 q 361 425 393 425 l 315 425 l 315 582 l 361 582 q 393 615 393 582 l 393 714 q 361 742 393 742 l 339 742 q 307 714 307 742 l 307 636 l 71 636 l 71 736 q 114 858 71 817 q 265 899 157 899 l 435 899 q 586 858 543 899 q 629 736 629 817 l 629 585 q 583 511 629 526 l 722 511 l 722 892 l 1389 892 z "},"इ":{"ha":642,"x_min":-28,"x_max":669,"o":"m 575 513 l 310 513 q 278 485 278 513 l 278 451 q 310 424 278 424 l 406 424 q 558 389 515 424 q 600 275 600 354 l 600 149 q 558 35 600 69 q 406 0 515 0 l 278 0 l 278 -86 l 42 -86 l 42 229 l 278 229 l 278 143 l 332 143 q 364 171 364 143 l 364 253 q 332 281 364 281 l 236 281 q 84 315 126 281 q 42 429 42 350 l 42 507 q 84 621 42 586 q 236 656 126 656 l 339 656 l 339 735 l -28 735 l -28 892 l 669 892 l 669 735 l 575 735 l 575 513 z "},"ई":{"ha":642,"x_min":-28,"x_max":681,"o":"m 681 985 l 607 985 q 575 957 575 985 l 575 892 l 669 892 l 669 735 l 575 735 l 575 513 l 310 513 q 278 485 278 513 l 278 451 q 310 424 278 424 l 406 424 q 558 389 515 424 q 600 275 600 354 l 600 149 q 558 35 600 69 q 406 0 515 0 l 278 0 l 278 -86 l 42 -86 l 42 229 l 278 229 l 278 143 l 332 143 q 364 171 364 143 l 364 253 q 332 281 364 281 l 236 281 q 84 315 126 281 q 42 429 42 350 l 42 507 q 84 621 42 586 q 236 656 126 656 l 339 656 l 339 735 l -28 735 l -28 892 l 339 892 l 339 979 q 381 1093 339 1058 q 533 1128 424 1128 l 681 1128 l 681 985 z "},"उ":{"ha":654,"x_min":-28,"x_max":669,"o":"m 669 892 l 669 735 l 578 735 q 586 700 586 719 l 586 563 q 521 485 586 493 l 521 478 q 586 400 586 469 l 586 149 q 544 35 586 69 q 392 0 501 0 l 222 0 q 70 35 113 0 q 28 149 28 69 l 28 310 l 264 310 l 264 171 q 288 143 264 143 l 318 143 q 350 171 350 143 l 350 369 q 318 403 350 403 l 257 403 l 257 560 l 318 560 q 350 593 350 560 l 350 688 q 340 724 350 714 q 303 735 331 735 l -28 735 l -28 892 l 669 892 z "},"ऊ":{"ha":940,"x_min":-28,"x_max":968,"o":"m 968 892 l 968 735 l 578 735 q 586 700 586 719 l 586 563 q 521 485 586 493 l 521 478 l 731 478 q 867 437 822 478 q 913 301 913 396 l 913 149 q 870 35 913 69 q 718 0 828 0 l 629 0 l 629 157 l 644 157 q 676 185 676 157 l 676 288 q 644 321 676 321 l 586 321 l 586 149 q 544 35 586 69 q 392 0 501 0 l 222 0 q 70 35 113 0 q 28 149 28 69 l 28 310 l 264 310 l 264 171 q 288 143 264 143 l 318 143 q 350 171 350 143 l 350 369 q 318 403 350 403 l 257 403 l 257 560 l 318 560 q 350 593 350 560 l 350 688 q 340 724 350 714 q 303 735 331 735 l -28 735 l -28 892 l 968 892 z "},"ऋ":{"ha":1411,"x_min":-28,"x_max":1439,"o":"m 714 735 l 714 390 l 806 390 q 797 425 797 406 l 797 479 q 847 616 797 576 q 1021 656 896 656 l 1132 656 q 1306 616 1257 656 q 1356 479 1356 576 l 1356 408 q 1290 331 1356 339 l 1290 324 q 1356 246 1356 315 l 1356 149 q 1313 35 1356 69 q 1161 0 1271 0 l 992 0 q 840 35 882 0 q 797 149 797 69 l 797 196 l 1033 196 l 1033 171 q 1057 143 1033 143 l 1088 143 q 1119 171 1119 143 l 1119 224 q 1088 251 1119 251 l 714 251 l 714 0 l 478 0 l 478 251 l 450 251 l 308 0 l 38 0 l 218 321 l 146 426 q 99 478 119 465 q 42 492 78 492 l 21 492 l 21 649 l 165 649 q 271 627 232 649 q 344 556 310 606 l 457 390 l 478 390 l 478 735 l -28 735 l -28 892 l 1439 892 l 1439 735 l 714 735 m 1033 488 l 1033 418 q 1065 390 1033 390 l 1088 390 q 1119 418 1119 390 l 1119 488 q 1088 515 1119 515 l 1065 515 q 1033 488 1033 515 z "},"ऌ":{"ha":1028,"x_min":-28,"x_max":1056,"o":"m 972 64 l 796 64 q 764 36 764 64 l 764 -10 q 796 -37 764 -37 l 1056 -37 l 1056 -194 l 722 -194 q 570 -160 613 -194 q 528 -46 528 -125 l 528 58 q 570 172 528 138 q 722 207 613 207 l 736 207 l 736 499 l 664 499 q 632 465 632 499 l 632 289 l 396 289 l 396 465 q 364 499 396 499 l 324 499 q 292 465 292 499 l 292 185 q 324 157 292 157 l 339 157 l 339 0 l 250 0 q 98 35 140 0 q 56 149 56 69 l 56 479 q 101 615 56 574 q 238 656 146 656 l 433 656 q 511 590 503 656 l 518 590 q 596 656 526 656 l 736 656 l 736 735 l -28 735 l -28 892 l 1056 892 l 1056 735 l 972 735 l 972 64 z "},"ऍ":{"ha":711,"x_min":-28,"x_max":739,"o":"m 739 892 l 739 735 l 656 735 l 656 521 q 613 407 656 442 q 461 372 571 372 l 344 372 l 344 529 l 388 529 q 419 557 419 529 l 419 735 l 292 735 l 292 171 q 324 143 292 143 l 396 143 q 419 171 419 143 l 419 310 l 656 310 l 656 149 q 613 35 656 69 q 461 0 571 0 l 250 0 q 98 35 140 0 q 56 149 56 69 l 56 735 l -28 735 l -28 892 l 739 892 m 503 938 l 231 938 q 67 971 115 938 q 19 1075 19 1004 l 19 1204 l 214 1204 l 214 1104 q 223 1076 214 1083 q 253 1068 232 1068 l 481 1068 q 510 1076 501 1068 q 519 1104 519 1083 l 519 1204 l 714 1204 l 714 1075 q 666 971 714 1004 q 503 938 618 938 z "},"ऎ":{"ha":711,"x_min":-28,"x_max":739,"o":"m 739 892 l 739 735 l 656 735 l 656 521 q 613 407 656 442 q 461 372 571 372 l 344 372 l 344 529 l 388 529 q 419 557 419 529 l 419 735 l 292 735 l 292 171 q 324 143 292 143 l 396 143 q 419 171 419 143 l 419 310 l 656 310 l 656 149 q 613 35 656 69 q 461 0 571 0 l 250 0 q 98 35 140 0 q 56 149 56 69 l 56 735 l -28 735 l -28 892 l 419 892 l 419 915 q 410 956 419 947 q 369 965 400 965 l 207 965 q 79 1093 79 965 l 79 1182 l 315 1182 l 315 1172 q 325 1131 315 1140 q 367 1122 335 1122 l 528 1122 q 656 994 656 1122 l 656 892 l 739 892 z "},"ए":{"ha":711,"x_min":-28,"x_max":739,"o":"m 739 892 l 739 735 l 656 735 l 656 521 q 613 407 656 442 q 461 372 571 372 l 344 372 l 344 529 l 388 529 q 419 557 419 529 l 419 735 l 292 735 l 292 171 q 324 143 292 143 l 396 143 q 419 171 419 143 l 419 310 l 656 310 l 656 149 q 613 35 656 69 q 461 0 571 0 l 250 0 q 98 35 140 0 q 56 149 56 69 l 56 735 l -28 735 l -28 892 l 739 892 z "},"ऐ":{"ha":711,"x_min":-28,"x_max":739,"o":"m 739 892 l 739 735 l 656 735 l 656 521 q 613 407 656 442 q 461 372 571 372 l 344 372 l 344 529 l 388 529 q 419 557 419 529 l 419 735 l 292 735 l 292 171 q 324 143 292 143 l 396 143 q 419 171 419 143 l 419 310 l 656 310 l 656 149 q 613 35 656 69 q 461 0 571 0 l 250 0 q 98 35 140 0 q 56 149 56 69 l 56 735 l -28 735 l -28 892 l 422 892 q 256 1067 342 956 l 175 1171 l 457 1171 l 653 892 l 739 892 z "},"ऑ":{"ha":1361,"x_min":71,"x_max":1535,"o":"m 1340 1232 l 1535 1232 l 1535 1103 q 1487 999 1535 1032 q 1324 965 1439 965 l 1051 965 q 888 999 936 965 q 840 1103 840 1032 l 840 1232 l 1035 1232 l 1035 1132 q 1044 1103 1035 1111 q 1074 1096 1053 1096 l 1301 1096 q 1331 1103 1322 1096 q 1340 1132 1340 1111 l 1340 1232 m 1389 892 l 1389 735 l 1306 735 l 1306 0 l 1069 0 l 1069 735 l 958 735 l 958 0 l 722 0 l 722 354 l 629 354 l 629 271 q 586 149 629 190 q 435 108 543 108 l 265 108 q 114 149 157 108 q 71 271 71 190 l 71 385 l 307 385 l 307 293 q 339 265 307 265 l 361 265 q 393 293 393 265 l 393 392 q 361 425 393 425 l 315 425 l 315 582 l 361 582 q 393 615 393 582 l 393 714 q 361 742 393 742 l 339 742 q 307 714 307 742 l 307 636 l 71 636 l 71 736 q 114 858 71 817 q 265 899 157 899 l 435 899 q 586 858 543 899 q 629 736 629 817 l 629 585 q 583 511 629 526 l 722 511 l 722 892 l 1389 892 z "},"ऒ":{"ha":1361,"x_min":71,"x_max":1389,"o":"m 1389 892 l 1389 735 l 1306 735 l 1306 0 l 1069 0 l 1069 735 l 958 735 l 958 0 l 722 0 l 722 354 l 629 354 l 629 271 q 586 149 629 190 q 435 108 543 108 l 265 108 q 114 149 157 108 q 71 271 71 190 l 71 385 l 307 385 l 307 293 q 339 265 307 265 l 361 265 q 393 293 393 265 l 393 392 q 361 425 393 425 l 315 425 l 315 582 l 361 582 q 393 615 393 582 l 393 714 q 361 742 393 742 l 339 742 q 307 714 307 742 l 307 636 l 71 636 l 71 736 q 114 858 71 817 q 265 899 157 899 l 435 899 q 586 858 543 899 q 629 736 629 817 l 629 585 q 583 511 629 526 l 722 511 l 722 892 l 1069 892 l 1069 915 q 1060 956 1069 947 q 1019 965 1050 965 l 857 965 q 729 1093 729 965 l 729 1182 l 965 1182 l 965 1172 q 975 1131 965 1140 q 1017 1122 985 1122 l 1178 1122 q 1306 994 1306 1122 l 1306 892 l 1389 892 z "},"ओ":{"ha":1361,"x_min":71,"x_max":1389,"o":"m 1389 892 l 1389 735 l 1306 735 l 1306 0 l 1069 0 l 1069 735 l 958 735 l 958 0 l 722 0 l 722 354 l 629 354 l 629 271 q 586 149 629 190 q 435 108 543 108 l 265 108 q 114 149 157 108 q 71 271 71 190 l 71 385 l 307 385 l 307 293 q 339 265 307 265 l 361 265 q 393 293 393 265 l 393 392 q 361 425 393 425 l 315 425 l 315 582 l 361 582 q 393 615 393 582 l 393 714 q 361 742 393 742 l 339 742 q 307 714 307 742 l 307 636 l 71 636 l 71 736 q 114 858 71 817 q 265 899 157 899 l 435 899 q 586 858 543 899 q 629 736 629 817 l 629 585 q 583 511 629 526 l 722 511 l 722 892 l 1068 892 q 901 1067 988 956 l 821 1171 l 1103 1171 l 1299 892 l 1389 892 z "},"औ":{"ha":1361,"x_min":71,"x_max":1389,"o":"m 1389 892 l 1389 735 l 1306 735 l 1306 0 l 1069 0 l 1069 735 l 958 735 l 958 0 l 722 0 l 722 354 l 629 354 l 629 271 q 586 149 629 190 q 435 108 543 108 l 265 108 q 114 149 157 108 q 71 271 71 190 l 71 385 l 307 385 l 307 293 q 339 265 307 265 l 361 265 q 393 293 393 265 l 393 392 q 361 425 393 425 l 315 425 l 315 582 l 361 582 q 393 615 393 582 l 393 714 q 361 742 393 742 l 339 742 q 307 714 307 742 l 307 636 l 71 636 l 71 736 q 114 858 71 817 q 265 899 157 899 l 435 899 q 586 858 543 899 q 629 736 629 817 l 629 585 q 583 511 629 526 l 722 511 l 722 892 l 1067 892 q 874 1035 979 946 l 711 1171 l 989 1171 q 1181 911 1136 979 l 1188 911 q 1071 1171 1154 969 l 1285 1171 l 1304 892 l 1389 892 z "},"क":{"ha":972,"x_min":-28,"x_max":1000,"o":"m 1000 735 l 604 735 l 604 633 q 678 656 625 656 l 763 656 q 899 615 854 656 q 944 479 944 574 l 944 257 q 902 143 944 178 q 750 108 860 108 l 661 108 l 661 251 l 676 251 q 708 279 708 251 l 708 465 q 676 499 708 499 l 636 499 q 604 465 604 499 l 604 0 l 368 0 l 368 131 q 294 108 347 108 l 210 108 q 73 149 118 108 q 28 285 28 190 l 28 507 q 70 621 28 586 q 222 656 113 656 l 311 656 l 311 513 l 296 513 q 264 485 264 513 l 264 299 q 296 265 264 265 l 336 265 q 368 299 368 265 l 368 735 l -28 735 l -28 892 l 1000 892 l 1000 735 z "},"ख":{"ha":1293,"x_min":-28,"x_max":1321,"o":"m 1321 892 l 1321 735 l 1238 735 l 1238 0 l 1001 0 l 1001 131 q 928 108 981 108 l 843 108 q 706 149 751 108 q 661 285 661 190 l 661 507 q 703 621 661 586 q 856 656 746 656 l 944 656 l 944 513 l 929 513 q 897 485 897 513 l 897 299 q 929 265 897 265 l 969 265 q 1001 299 1001 265 l 1001 735 l 593 735 q 601 700 601 719 l 601 479 q 556 356 601 392 q 403 319 511 319 l 292 319 l 292 204 q 302 167 292 178 q 339 157 313 157 l 683 157 l 683 0 l 306 0 q 115 37 174 0 q 56 160 56 74 l 56 656 l 292 656 l 292 476 l 318 476 q 355 487 344 476 q 365 524 365 497 l 365 688 q 355 724 365 714 q 318 735 344 735 l -28 735 l -28 892 l 1321 892 z "},"ग":{"ha":1008,"x_min":-28,"x_max":1036,"o":"m 1036 892 l 1036 735 l 953 735 l 953 0 l 717 0 l 717 735 l 606 735 l 606 285 q 556 148 606 188 q 382 108 507 108 l 263 108 q 88 148 138 108 q 39 285 39 188 l 39 496 q 98 619 39 582 q 289 656 157 656 l 369 656 l 369 735 l -28 735 l -28 892 l 1036 892 m 310 265 l 335 265 q 369 299 369 265 l 369 499 l 318 499 q 283 491 292 499 q 275 456 275 483 l 275 299 q 310 265 275 265 z "},"घ":{"ha":739,"x_min":-28,"x_max":767,"o":"m 767 892 l 767 735 l 683 735 l 683 0 l 447 0 l 447 131 q 379 108 425 108 l 279 108 q 109 149 163 108 q 56 285 56 189 l 56 418 q 121 496 56 488 l 121 503 q 56 581 56 511 l 56 700 q 64 735 56 719 l -28 735 l -28 892 l 767 892 m 447 313 l 447 735 l 339 735 q 301 724 311 735 q 292 688 292 714 l 292 611 q 324 578 292 578 l 369 578 l 369 421 l 324 421 q 292 388 292 421 l 292 299 q 324 265 292 265 l 400 265 q 438 276 428 265 q 447 313 447 286 z "},"ङ":{"ha":775,"x_min":-28,"x_max":803,"o":"m -28 892 l 803 892 l 803 735 l 565 735 l 565 513 l 315 513 q 283 485 283 513 l 283 453 q 315 425 283 425 l 403 425 q 555 390 513 425 q 597 276 597 356 l 597 149 q 555 35 597 69 q 403 0 513 0 l 233 0 q 81 35 124 0 q 39 149 39 69 l 39 221 l 275 221 l 275 171 q 299 143 275 143 l 329 143 q 361 171 361 143 l 361 254 q 329 282 361 282 l 242 282 q 90 317 132 282 q 47 431 47 351 l 47 507 q 90 621 47 586 q 242 656 132 656 l 329 656 l 329 735 l -28 735 l -28 892 m 603 394 l 603 574 l 772 574 l 772 394 l 603 394 z "},"च":{"ha":693,"x_min":-31,"x_max":721,"o":"m 721 892 l 721 735 l 638 735 l 638 0 l 401 0 l 401 131 q 328 108 381 108 l 243 108 q 106 149 151 108 q 61 285 61 190 l 61 424 q 85 499 61 472 l -17 499 l -17 656 l 361 656 l 361 499 l 329 499 q 297 465 297 499 l 297 299 q 329 265 297 265 l 369 265 q 401 299 401 265 l 401 735 l -31 735 l -31 892 l 721 892 z "},"छ":{"ha":974,"x_min":-28,"x_max":1001,"o":"m 1001 735 l 776 735 l 776 653 q 883 613 849 646 q 918 507 918 579 l 918 176 q 865 40 918 81 q 694 0 811 0 l 271 0 q 101 40 154 0 q 47 176 47 81 l 47 358 q 113 436 47 428 l 113 443 q 47 521 47 451 l 47 700 q 56 735 47 719 l -28 735 l -28 892 l 1001 892 l 1001 735 m 554 735 l 331 735 q 293 724 303 735 q 283 688 283 714 l 283 551 q 315 518 283 518 l 361 518 l 361 361 l 315 361 q 283 328 283 361 l 283 193 q 315 160 283 160 l 650 160 q 682 193 682 160 l 682 497 q 650 525 682 525 l 628 525 q 596 497 596 525 l 596 442 q 628 414 596 414 l 643 414 l 643 285 l 586 285 q 459 318 503 285 q 415 433 415 351 l 415 507 q 449 612 415 578 q 554 653 483 646 l 554 735 z "},"ज":{"ha":1011,"x_min":-28,"x_max":1039,"o":"m 1039 892 l 1039 735 l 956 735 l 956 0 l 719 0 l 719 499 l 622 499 l 622 285 q 573 148 622 188 q 399 108 524 108 l 279 108 q 105 148 154 108 q 56 285 56 188 l 56 656 l 292 656 l 292 299 q 326 265 292 265 l 351 265 q 386 299 386 265 l 386 656 l 719 656 l 719 735 l -28 735 l -28 892 l 1039 892 z "},"झ":{"ha":989,"x_min":-56,"x_max":1017,"o":"m 1017 892 l 1017 735 l 933 735 l 933 0 l 697 0 l 697 281 l 597 281 q 600 250 600 261 l 600 149 q 558 35 600 69 q 406 0 515 0 l 278 0 l 278 -86 l 42 -86 l 42 229 l 278 229 l 278 143 l 332 143 q 364 171 364 143 l 364 253 q 332 281 364 281 l 236 281 q 84 315 126 281 q 42 429 42 350 l 42 507 q 84 621 42 586 q 236 656 126 656 l 339 656 l 339 735 l -56 735 l -56 892 l 1017 892 m 699 424 l 699 735 l 575 735 l 575 513 l 310 513 q 278 485 278 513 l 278 451 q 310 424 278 424 l 699 424 z "},"ञ":{"ha":994,"x_min":-28,"x_max":1022,"o":"m 1022 892 l 1022 735 l 939 735 l 939 0 l 703 0 l 703 304 l 594 304 l 594 285 q 545 148 594 188 q 371 108 496 108 l 251 108 q 77 148 126 108 q 28 285 28 188 l 28 374 l 264 374 l 264 299 q 299 265 264 265 l 324 265 q 358 299 358 265 l 358 471 q 326 499 358 499 l 185 499 l 185 656 l 400 656 q 551 615 508 656 q 594 493 594 574 l 594 461 l 703 461 l 703 735 l -28 735 l -28 892 l 1022 892 z "},"ट":{"ha":678,"x_min":-28,"x_max":706,"o":"m 706 892 l 706 735 l 622 735 l 622 499 l 326 499 q 292 465 292 499 l 292 190 q 326 157 292 157 l 351 157 q 386 190 386 157 l 386 332 l 622 332 l 622 176 q 573 40 622 79 q 399 0 524 0 l 279 0 q 105 40 154 0 q 56 176 56 79 l 56 507 q 98 621 56 586 q 250 656 140 656 l 386 656 l 386 735 l -28 735 l -28 892 l 706 892 z "},"ठ":{"ha":678,"x_min":-28,"x_max":706,"o":"m 706 735 l 457 735 l 457 653 q 585 604 547 644 q 622 479 622 564 l 622 176 q 573 40 622 79 q 399 0 524 0 l 279 0 q 105 40 154 0 q 56 176 56 79 l 56 479 q 93 604 56 564 q 221 653 131 644 l 221 735 l -28 735 l -28 892 l 706 892 l 706 735 m 386 190 l 386 465 q 351 499 386 499 l 326 499 q 292 465 292 499 l 292 190 q 326 157 292 157 l 351 157 q 386 190 386 157 z "},"ड":{"ha":653,"x_min":-28,"x_max":681,"o":"m 565 513 l 315 513 q 283 485 283 513 l 283 453 q 315 425 283 425 l 403 425 q 555 390 513 425 q 597 276 597 356 l 597 149 q 555 35 597 69 q 403 0 513 0 l 233 0 q 81 35 124 0 q 39 149 39 69 l 39 221 l 275 221 l 275 171 q 299 143 275 143 l 329 143 q 361 171 361 143 l 361 254 q 329 282 361 282 l 242 282 q 90 317 132 282 q 47 431 47 351 l 47 507 q 90 621 47 586 q 242 656 132 656 l 329 656 l 329 735 l -28 735 l -28 892 l 681 892 l 681 735 l 565 735 l 565 513 z "},"ढ":{"ha":718,"x_min":-28,"x_max":746,"o":"m 622 499 l 326 499 q 292 465 292 499 l 292 190 q 326 157 292 157 l 406 157 q 440 190 440 157 l 440 232 q 406 265 440 265 l 344 265 l 344 422 l 453 422 q 627 383 578 422 q 676 246 676 343 l 676 176 q 627 40 676 79 q 453 0 578 0 l 279 0 q 105 40 154 0 q 56 176 56 79 l 56 507 q 98 621 56 586 q 250 656 140 656 l 386 656 l 386 735 l -28 735 l -28 892 l 746 892 l 746 735 l 622 735 l 622 499 z "},"ण":{"ha":1025,"x_min":-28,"x_max":1053,"o":"m 1053 892 l 1053 735 l 969 735 l 969 0 l 733 0 l 733 735 l 622 735 l 622 285 q 573 148 622 188 q 399 108 524 108 l 279 108 q 105 148 154 108 q 56 285 56 188 l 56 735 l -28 735 l -28 892 l 1053 892 m 386 299 l 386 735 l 292 735 l 292 299 q 326 265 292 265 l 351 265 q 386 299 386 265 z "},"त":{"ha":685,"x_min":-28,"x_max":713,"o":"m 713 892 l 713 735 l 629 735 l 629 0 l 393 0 l 393 499 l 324 499 q 292 471 292 499 l 292 185 q 324 157 292 157 l 339 157 l 339 0 l 250 0 q 98 35 140 0 q 56 149 56 69 l 56 507 q 98 621 56 586 q 250 656 140 656 l 393 656 l 393 735 l -28 735 l -28 892 l 713 892 z "},"थ":{"ha":904,"x_min":69,"x_max":932,"o":"m 932 892 l 932 735 l 849 735 l 849 0 l 613 0 l 613 131 q 544 108 590 108 l 293 108 q 123 149 176 108 q 69 285 69 189 l 69 560 l 250 560 q 282 588 282 560 l 282 714 q 250 742 282 742 l 240 742 q 208 714 208 742 l 208 664 l 83 664 l 83 751 q 127 863 83 828 q 264 899 171 899 l 338 899 q 474 863 431 899 q 518 751 518 828 l 518 565 q 475 444 518 485 q 324 403 432 403 l 306 403 l 306 299 q 338 265 306 265 l 565 265 q 602 276 592 265 q 613 313 613 286 l 613 735 l 611 892 l 932 892 z "},"द":{"ha":658,"x_min":-47,"x_max":686,"o":"m 686 892 l 686 735 l 603 735 l 603 499 l 307 499 q 272 465 272 499 l 272 299 q 304 265 272 265 l 335 265 q 367 299 367 265 l 367 404 l 603 404 l 603 0 l 367 0 l 367 131 q 293 108 346 108 l 260 108 q 85 148 135 108 q 36 285 36 188 l 36 507 q 78 621 36 586 q 231 656 121 656 l 367 656 l 367 735 l -47 735 l -47 892 l 686 892 z "},"ध":{"ha":842,"x_min":69,"x_max":879,"o":"m 879 892 l 879 735 l 796 735 l 796 0 l 560 0 l 560 131 q 492 108 538 108 l 250 108 q 113 144 157 108 q 69 256 69 179 l 69 400 q 135 478 69 469 l 135 485 q 69 563 69 493 l 69 751 q 113 863 69 828 q 250 899 157 899 l 324 899 q 460 863 417 899 q 504 751 504 828 l 504 664 l 379 664 l 379 714 q 347 742 379 742 l 338 742 q 306 714 306 742 l 306 593 q 338 560 306 560 l 433 560 l 433 403 l 338 403 q 306 369 306 403 l 306 299 q 338 265 306 265 l 513 265 q 549 276 539 265 q 560 313 560 286 l 560 735 l 558 892 l 879 892 z "},"न":{"ha":983,"x_min":-28,"x_max":1011,"o":"m 1011 892 l 1011 735 l 928 735 l 928 0 l 692 0 l 692 499 l 608 499 l 608 285 q 559 148 608 188 q 385 108 510 108 l 265 108 q 91 148 140 108 q 42 285 42 188 l 42 507 q 84 621 42 586 q 236 656 126 656 l 692 656 l 692 735 l -28 735 l -28 892 l 1011 892 m 372 299 l 372 499 l 310 499 q 278 471 278 499 l 278 299 q 313 265 278 265 l 338 265 q 372 299 372 265 z "},"ऩ":{"ha":983,"x_min":-28,"x_max":1011,"o":"m 1011 892 l 1011 735 l 928 735 l 928 0 l 692 0 l 692 499 l 608 499 l 608 285 q 559 148 608 188 q 385 108 510 108 l 265 108 q 91 148 140 108 q 42 285 42 188 l 42 507 q 84 621 42 586 q 236 656 126 656 l 692 656 l 692 735 l -28 735 l -28 892 l 1011 892 m 372 299 l 372 499 l 310 499 q 278 471 278 499 l 278 299 q 313 265 278 265 l 338 265 q 372 299 372 265 m 422 -161 l 422 18 l 592 18 l 592 -161 l 422 -161 z "},"प":{"ha":688,"x_min":-28,"x_max":715,"o":"m 715 892 l 715 735 l 632 735 l 632 0 l 396 0 l 396 131 q 322 108 375 108 l 238 108 q 101 149 146 108 q 56 285 56 190 l 56 735 l -28 735 l -28 892 l 715 892 m 396 299 l 396 735 l 292 735 l 292 299 q 324 265 292 265 l 364 265 q 396 299 396 265 z "},"फ":{"ha":1000,"x_min":-28,"x_max":1028,"o":"m 1028 735 l 632 735 l 632 633 q 706 656 653 656 l 790 656 q 927 615 882 656 q 972 479 972 574 l 972 257 q 930 143 972 178 q 778 108 888 108 l 689 108 l 689 251 l 704 251 q 736 279 736 251 l 736 465 q 704 499 736 499 l 664 499 q 632 465 632 499 l 632 0 l 396 0 l 396 131 q 322 108 375 108 l 238 108 q 101 149 146 108 q 56 285 56 190 l 56 735 l -28 735 l -28 892 l 1028 892 l 1028 735 m 396 299 l 396 735 l 292 735 l 292 299 q 324 265 292 265 l 364 265 q 396 299 396 265 z "},"ब":{"ha":801,"x_min":-28,"x_max":829,"o":"m 829 892 l 829 735 l 746 735 l 746 0 l 510 0 l 510 115 q 460 108 489 108 l 224 108 q 87 149 132 108 q 42 285 42 190 l 42 507 q 84 621 42 586 q 236 656 126 656 l 451 656 l 451 513 l 351 513 l 518 308 q 510 451 510 328 l 510 735 l -28 735 l -28 892 l 829 892 m 278 299 q 310 265 278 265 l 436 265 q 278 461 329 394 l 278 299 z "},"भ":{"ha":1022,"x_min":56,"x_max":1050,"o":"m 1050 892 l 1050 735 l 967 735 l 967 0 l 731 0 l 731 454 l 622 454 l 622 285 q 573 148 622 188 q 399 108 524 108 l 279 108 q 105 148 154 108 q 56 285 56 188 l 56 463 q 98 576 56 542 q 250 611 140 611 l 386 611 l 386 714 q 354 742 386 742 l 336 742 q 304 714 304 742 l 304 678 l 68 678 l 68 736 q 111 858 68 817 q 263 899 154 899 l 428 899 q 579 858 536 899 q 622 736 622 817 l 622 611 l 731 611 l 731 892 l 1050 892 m 386 299 l 386 454 l 324 454 q 292 426 292 454 l 292 299 q 326 265 292 265 l 351 265 q 386 299 386 265 z "},"म":{"ha":1008,"x_min":-28,"x_max":1036,"o":"m 1036 892 l 1036 735 l 953 735 l 953 0 l 717 0 l 717 443 l 608 443 l 608 285 q 559 148 608 188 q 385 108 510 108 l 265 108 q 91 148 140 108 q 42 285 42 188 l 42 451 q 84 565 42 531 q 236 600 126 600 l 372 600 l 372 735 l -28 735 l -28 892 l 1036 892 m 372 299 l 372 443 l 285 443 q 253 415 253 443 l 253 299 q 288 265 253 265 l 338 265 q 372 299 372 265 m 717 600 l 717 735 l 608 735 l 608 600 l 717 600 z "},"य":{"ha":872,"x_min":-28,"x_max":900,"o":"m 900 892 l 900 735 l 817 735 l 817 0 l 581 0 l 581 131 q 513 108 558 108 l 279 108 q 109 149 163 108 q 56 285 56 189 l 56 544 l 229 544 q 261 572 261 544 l 261 688 q 251 724 261 714 q 214 735 242 735 l -28 735 l -28 892 l 900 892 m 581 313 l 581 735 l 467 735 q 486 674 486 711 l 486 550 q 446 428 486 468 q 299 388 406 388 l 292 388 l 292 299 q 324 265 292 265 l 533 265 q 571 276 561 265 q 581 313 581 286 z "},"र":{"ha":657,"x_min":-28,"x_max":685,"o":"m 685 892 l 685 735 l 593 735 q 601 700 601 719 l 601 507 q 542 384 601 421 q 351 347 483 347 l 292 347 l 292 171 q 324 143 292 143 l 342 143 q 365 171 365 143 l 365 283 l 601 283 l 601 149 q 559 35 601 69 q 407 0 517 0 l 250 0 q 98 35 140 0 q 56 149 56 69 l 56 656 l 292 656 l 292 504 l 318 504 q 355 515 344 504 q 365 551 365 525 l 365 688 q 355 724 365 714 q 318 735 344 735 l -28 735 l -28 892 l 685 892 z "},"ऱ":{"ha":657,"x_min":-28,"x_max":685,"o":"m 685 892 l 685 735 l 593 735 q 601 700 601 719 l 601 507 q 542 384 601 421 q 351 347 483 347 l 292 347 l 292 171 q 324 143 292 143 l 342 143 q 365 171 365 143 l 365 283 l 601 283 l 601 149 q 559 35 601 69 q 407 0 517 0 l 250 0 q 98 35 140 0 q 56 149 56 69 l 56 656 l 292 656 l 292 504 l 318 504 q 355 515 344 504 q 365 551 365 525 l 365 688 q 355 724 365 714 q 318 735 344 735 l -28 735 l -28 892 l 685 892 m 224 -269 l 224 -90 l 393 -90 l 393 -269 l 224 -269 z "},"ल":{"ha":1039,"x_min":-28,"x_max":1067,"o":"m 1067 892 l 1067 735 l 983 735 l 983 0 l 747 0 l 747 499 l 682 499 q 650 465 650 499 l 650 233 l 414 233 l 414 465 q 382 499 414 499 l 342 499 q 310 465 310 499 l 310 185 q 342 157 310 157 l 411 157 l 411 0 l 268 0 q 116 35 158 0 q 74 149 74 69 l 74 479 q 119 615 74 574 q 256 656 164 656 l 451 656 q 529 590 521 656 l 536 590 q 614 656 544 656 l 747 656 l 747 735 l -28 735 l -28 892 l 1067 892 z "},"ळ":{"ha":1014,"x_min":-28,"x_max":1042,"o":"m 1042 735 l 825 735 l 825 653 q 958 479 958 633 l 958 285 q 913 149 958 190 q 776 108 868 108 l 617 108 q 511 174 519 108 l 504 174 q 399 108 496 108 l 238 108 q 101 149 146 108 q 56 285 56 190 l 56 479 q 101 615 56 574 q 238 656 146 656 l 399 656 q 504 590 496 656 l 511 590 q 589 654 518 646 l 589 735 l -28 735 l -28 892 l 1042 892 l 1042 735 m 396 299 l 396 465 q 364 499 396 499 l 324 499 q 292 465 292 499 l 292 299 q 324 265 292 265 l 364 265 q 396 299 396 265 m 722 299 l 722 465 q 690 499 722 499 l 650 499 q 618 465 618 499 l 618 299 q 650 265 618 265 l 690 265 q 722 299 722 265 z "},"ऴ":{"ha":1014,"x_min":-28,"x_max":1042,"o":"m 1042 735 l 825 735 l 825 653 q 958 479 958 633 l 958 285 q 913 149 958 190 q 776 108 868 108 l 617 108 q 511 174 519 108 l 504 174 q 399 108 496 108 l 238 108 q 101 149 146 108 q 56 285 56 190 l 56 479 q 101 615 56 574 q 238 656 146 656 l 399 656 q 504 590 496 656 l 511 590 q 589 654 518 646 l 589 735 l -28 735 l -28 892 l 1042 892 l 1042 735 m 396 299 l 396 465 q 364 499 396 499 l 324 499 q 292 465 292 499 l 292 299 q 324 265 292 265 l 364 265 q 396 299 396 265 m 722 299 l 722 465 q 690 499 722 499 l 650 499 q 618 465 618 499 l 618 299 q 650 265 618 265 l 690 265 q 722 299 722 265 m 103 -161 l 103 18 l 272 18 l 272 -161 l 103 -161 z "},"व":{"ha":688,"x_min":-28,"x_max":715,"o":"m 715 892 l 715 735 l 632 735 l 632 0 l 396 0 l 396 131 q 322 108 375 108 l 238 108 q 101 149 146 108 q 56 285 56 190 l 56 507 q 98 621 56 586 q 250 656 140 656 l 339 656 l 339 499 l 324 499 q 292 471 292 499 l 292 299 q 324 265 292 265 l 364 265 q 396 299 396 265 l 396 735 l -28 735 l -28 892 l 715 892 z "},"श":{"ha":1028,"x_min":83,"x_max":1056,"o":"m 736 892 l 1056 892 l 1056 735 l 972 735 l 972 0 l 736 0 l 736 892 m 278 899 l 435 899 q 586 858 543 899 q 629 736 629 817 l 629 483 q 570 360 629 397 q 379 324 511 324 l 319 324 l 319 171 q 351 143 319 143 l 369 143 q 393 171 393 143 l 393 260 l 629 260 l 629 149 q 587 35 629 69 q 435 0 544 0 l 278 0 q 126 35 168 0 q 83 149 83 69 l 83 564 l 319 564 l 319 481 l 346 481 q 383 491 372 481 q 393 528 393 501 l 393 714 q 361 742 393 742 l 343 742 q 319 714 319 742 l 319 646 l 83 646 l 83 736 q 126 858 83 817 q 278 899 169 899 z "},"ष":{"ha":757,"x_min":-28,"x_max":785,"o":"m 785 892 l 785 735 l 701 735 l 701 0 l 465 0 l 465 131 q 392 108 444 108 l 238 108 q 101 149 146 108 q 56 285 56 190 l 56 735 l -28 735 l -28 892 l 785 892 m 324 265 l 433 265 q 464 285 458 265 l 347 479 q 279 631 304 551 q 292 463 292 561 l 292 299 q 324 265 292 265 m 465 593 l 465 735 l 314 735 l 410 576 q 478 425 453 504 q 465 593 465 494 z "},"स":{"ha":982,"x_min":-28,"x_max":1010,"o":"m 1010 892 l 1010 735 l 926 735 l 926 0 l 690 0 l 690 347 l 292 347 l 292 171 q 324 143 292 143 l 342 143 q 365 171 365 143 l 365 283 l 601 283 l 601 149 q 559 35 601 69 q 407 0 517 0 l 250 0 q 98 35 140 0 q 56 149 56 69 l 56 656 l 292 656 l 292 504 l 318 504 q 355 515 344 504 q 365 551 365 525 l 365 688 q 355 724 365 714 q 318 735 344 735 l -28 735 l -28 892 l 1010 892 m 690 504 l 690 735 l 593 735 q 601 700 601 719 l 601 539 q 593 504 601 519 l 690 504 z "},"ह":{"ha":678,"x_min":-28,"x_max":706,"o":"m 706 892 l 706 735 l 622 735 l 622 499 l 324 499 q 292 474 292 499 l 292 464 q 324 439 292 439 l 399 439 q 573 399 524 439 q 622 263 622 360 l 622 222 l 386 222 l 386 249 q 351 282 386 282 l 324 282 q 292 249 292 282 l 292 190 q 324 157 292 157 l 622 157 l 622 0 l 279 0 q 109 40 163 0 q 56 176 56 81 l 56 279 q 121 357 56 349 l 121 364 q 56 442 56 372 l 56 507 q 98 621 56 586 q 250 656 140 656 l 386 656 l 386 735 l -28 735 l -28 892 l 706 892 z "},"़":{"ha":0,"x_min":-256,"x_max":-86,"o":"m -256 -37 l -86 -37 l -86 -217 l -256 -217 l -256 -37 z "},"ऽ":{"ha":642,"x_min":42,"x_max":600,"o":"m 547 749 l 318 749 q 286 721 286 749 l 286 582 q 318 554 286 554 l 406 554 q 558 519 515 554 q 600 406 600 485 l 600 149 q 558 35 600 69 q 406 0 515 0 l 236 0 q 84 35 126 0 q 42 149 42 69 l 42 221 l 278 221 l 278 171 q 301 143 278 143 l 332 143 q 364 171 364 143 l 364 383 q 332 411 364 411 l 244 411 q 92 446 135 411 q 50 560 50 481 l 50 743 q 92 857 50 822 q 244 892 135 892 l 547 892 l 547 749 z "},"ा":{"ha":347,"x_min":-28,"x_max":375,"o":"m 375 892 l 375 735 l 292 735 l 292 0 l 56 0 l 56 735 l -28 735 l -28 892 l 375 892 z "},"ि":{"ha":347,"x_min":-28,"x_max":956,"o":"m 225 1192 l 786 1192 q 956 1036 956 1192 l 956 939 l 719 939 l 719 985 q 710 1026 719 1017 q 669 1035 700 1035 l 342 1035 q 301 1026 311 1035 q 292 985 292 1017 l 292 892 l 375 892 l 375 735 l 292 735 l 292 0 l 56 0 l 56 735 l -28 735 l -28 892 l 56 892 l 56 1036 q 225 1192 56 1192 z "},"ी":{"ha":347,"x_min":-333,"x_max":375,"o":"m 375 892 l 375 735 l 292 735 l 292 0 l 56 0 l 56 735 l -28 735 l -28 892 l 56 892 l 56 985 q 46 1026 56 1017 q 6 1035 36 1035 l -47 1035 q -87 1026 -78 1035 q -97 985 -97 1017 l -97 939 l -333 939 l -333 1036 q -164 1192 -333 1192 l 122 1192 q 292 1036 292 1192 l 292 892 l 375 892 z "},"ु":{"ha":0,"x_min":-644,"x_max":54,"o":"m -128 10 q 9 -31 -36 10 q 54 -167 54 -72 l 54 -228 q 9 -363 54 -322 q -128 -404 -36 -404 l -321 -404 q -492 -367 -431 -404 q -603 -244 -553 -331 l -644 -174 l -368 -174 l -340 -217 q -279 -247 -321 -247 l -225 -247 q -190 -239 -197 -247 q -182 -204 -182 -231 l -182 -192 q -190 -156 -182 -164 q -225 -149 -197 -149 l -292 -149 l -292 10 l -128 10 z "},"ू":{"ha":0,"x_min":-444,"x_max":351,"o":"m -87 11 q 82 -26 22 11 q 194 -149 142 -62 l 351 -403 l 75 -403 l -68 -176 q -129 -146 -86 -146 l -165 -146 q -200 -153 -192 -146 q -208 -189 -208 -161 l -208 -201 q -200 -236 -208 -228 q -165 -244 -192 -244 l -99 -244 l -99 -403 l -262 -403 q -399 -362 -354 -403 q -444 -226 -444 -321 l -444 -165 q -399 -30 -444 -71 q -262 11 -354 11 l -87 11 z "},"ृ":{"ha":0,"x_min":-429,"x_max":-14,"o":"m -56 11 l -56 -146 l -150 -146 q -185 -153 -178 -146 q -193 -189 -193 -161 l -193 -201 q -185 -236 -193 -228 q -150 -244 -178 -244 l -14 -244 l -14 -403 l -247 -403 q -384 -362 -339 -403 q -429 -226 -429 -321 l -429 -165 q -384 -30 -429 -71 q -247 11 -339 11 l -56 11 z "},"ॄ":{"ha":0,"x_min":-404,"x_max":15,"o":"m -404 -124 q -236 11 -404 11 l -56 11 l -56 -146 l -136 -146 q -168 -179 -168 -146 l -168 -212 q -136 -246 -168 -246 l -72 -246 l -72 -403 l -136 -403 q -168 -436 -168 -403 l -168 -469 q -136 -503 -168 -503 l 15 -503 l 15 -660 l -181 -660 q -351 -619 -297 -660 q -404 -483 -404 -579 l -404 -406 q -339 -328 -404 -336 l -339 -321 q -404 -243 -404 -312 l -404 -124 z "},"ॅ":{"ha":0,"x_min":-524,"x_max":171,"o":"m -524 1232 l -329 1232 l -329 1132 q -320 1103 -329 1111 q -290 1096 -311 1096 l -62 1096 q -33 1103 -42 1096 q -24 1132 -24 1111 l -24 1232 l 171 1232 l 171 1103 q 123 999 171 1032 q -40 965 75 965 l -312 965 q -476 999 -428 965 q -524 1103 -524 1032 l -524 1232 z "},"ॆ":{"ha":0,"x_min":-632,"x_max":-56,"o":"m -632 1182 l -396 1182 l -396 1172 q -386 1131 -396 1140 q -344 1122 -376 1122 l -183 1122 q -56 994 -56 1122 l -56 842 l -292 842 l -292 915 q -301 956 -292 947 q -342 965 -311 965 l -504 965 q -632 1093 -632 965 l -632 1182 z "},"े":{"ha":0,"x_min":-542,"x_max":-61,"o":"m -260 1171 l -61 888 l -289 888 q -461 1067 -372 953 l -542 1171 l -260 1171 z "},"ै":{"ha":0,"x_min":-657,"x_max":-64,"o":"m -657 1171 l -379 1171 q -187 911 -232 979 l -181 911 q -297 1171 -214 969 l -83 1171 l -64 888 l -294 888 q -494 1035 -385 943 l -657 1171 z "},"ॉ":{"ha":347,"x_min":-174,"x_max":521,"o":"m 326 1232 l 521 1232 l 521 1103 q 473 999 521 1032 q 310 965 425 965 l 38 965 q -126 999 -78 965 q -174 1103 -174 1032 l -174 1232 l 21 1232 l 21 1132 q 30 1103 21 1111 q 60 1096 39 1096 l 288 1096 q 317 1103 308 1096 q 326 1132 326 1111 l 326 1232 m -28 735 l -28 892 l 375 892 l 375 735 l 292 735 l 292 0 l 56 0 l 56 735 l -28 735 z "},"ॊ":{"ha":347,"x_min":-285,"x_max":375,"o":"m 375 892 l 375 735 l 292 735 l 292 0 l 56 0 l 56 735 l -28 735 l -28 892 l 56 892 l 56 915 q 46 956 56 947 q 6 965 36 965 l -157 965 q -285 1093 -285 965 l -285 1182 l -49 1182 l -49 1172 q -39 1131 -49 1140 q 3 1122 -29 1122 l 164 1122 q 292 994 292 1122 l 292 892 l 375 892 z "},"ो":{"ha":347,"x_min":-189,"x_max":375,"o":"m 375 892 l 375 735 l 292 735 l 292 0 l 56 0 l 56 735 l -28 735 l -28 892 l 58 892 q -108 1067 -22 956 l -189 1171 l 93 1171 l 289 892 l 375 892 z "},"ौ":{"ha":347,"x_min":-303,"x_max":375,"o":"m 375 892 l 375 735 l 292 735 l 292 0 l 56 0 l 56 735 l -28 735 l -28 892 l 53 892 q -140 1035 -35 946 l -303 1171 l -25 1171 q 167 911 122 979 l 174 911 q 57 1171 140 969 l 271 1171 l 290 892 l 375 892 z "},"्":{"ha":0,"x_min":-306,"x_max":106,"o":"m -75 -85 l 106 -293 l -125 -293 l -306 -85 l -75 -85 z "},"ॐ":{"ha":1331,"x_min":69,"x_max":1261,"o":"m 1067 528 q 1218 487 1175 528 q 1261 365 1261 446 l 1261 163 q 1218 41 1261 82 q 1067 0 1175 0 l 897 0 q 746 41 789 0 q 703 163 703 82 l 703 304 l 939 304 l 939 185 q 971 157 939 157 l 993 157 q 1025 185 1025 157 l 1025 340 q 993 368 1025 368 l 615 368 q 628 317 628 351 l 628 163 q 585 41 628 82 q 433 0 542 0 l 264 0 q 113 41 156 0 q 69 163 69 82 l 69 328 l 306 328 l 306 185 q 338 157 306 157 l 360 157 q 392 185 392 157 l 392 335 q 360 368 392 368 l 314 368 l 314 525 l 360 525 q 392 558 392 525 l 392 707 q 360 735 392 735 l 338 735 q 306 707 306 735 l 306 579 l 69 579 l 69 729 q 113 851 69 810 q 264 892 156 892 l 433 892 q 578 856 533 892 q 626 751 622 821 l 856 751 q 885 759 876 751 q 894 788 894 767 l 894 888 l 1131 888 l 1131 757 q 1088 635 1131 676 q 936 594 1044 594 l 628 594 l 628 579 q 615 528 628 544 l 1067 528 m 831 990 l 831 811 l 661 811 l 661 990 l 831 990 z "},"क़":{"ha":972,"x_min":-28,"x_max":1000,"o":"m 1000 735 l 604 735 l 604 633 q 678 656 625 656 l 763 656 q 899 615 854 656 q 944 479 944 574 l 944 257 q 902 143 944 178 q 750 108 860 108 l 661 108 l 661 251 l 676 251 q 708 279 708 251 l 708 465 q 676 499 708 499 l 636 499 q 604 465 604 499 l 604 0 l 368 0 l 368 131 q 294 108 347 108 l 210 108 q 73 149 118 108 q 28 285 28 190 l 28 507 q 70 621 28 586 q 222 656 113 656 l 311 656 l 311 513 l 296 513 q 264 485 264 513 l 264 299 q 296 265 264 265 l 336 265 q 368 299 368 265 l 368 735 l -28 735 l -28 892 l 1000 892 l 1000 735 m 121 -179 l 121 0 l 290 0 l 290 -179 l 121 -179 z "},"ख़":{"ha":1293,"x_min":-28,"x_max":1321,"o":"m 1321 892 l 1321 735 l 1238 735 l 1238 0 l 1001 0 l 1001 131 q 928 108 981 108 l 843 108 q 706 149 751 108 q 661 285 661 190 l 661 507 q 703 621 661 586 q 856 656 746 656 l 944 656 l 944 513 l 929 513 q 897 485 897 513 l 897 299 q 929 265 897 265 l 969 265 q 1001 299 1001 265 l 1001 735 l 593 735 q 601 700 601 719 l 601 479 q 556 356 601 392 q 403 319 511 319 l 292 319 l 292 204 q 302 167 292 178 q 339 157 313 157 l 683 157 l 683 0 l 306 0 q 115 37 174 0 q 56 160 56 74 l 56 656 l 292 656 l 292 476 l 318 476 q 355 487 344 476 q 365 524 365 497 l 365 688 q 355 724 365 714 q 318 735 344 735 l -28 735 l -28 892 l 1321 892 m 222 -246 l 222 -67 l 392 -67 l 392 -246 l 222 -246 z "},"ग़":{"ha":1008,"x_min":-28,"x_max":1036,"o":"m 1036 892 l 1036 735 l 953 735 l 953 0 l 717 0 l 717 735 l 606 735 l 606 285 q 556 148 606 188 q 382 108 507 108 l 263 108 q 88 148 138 108 q 39 285 39 188 l 39 496 q 98 619 39 582 q 289 656 157 656 l 369 656 l 369 735 l -28 735 l -28 892 l 1036 892 m 310 265 l 335 265 q 369 299 369 265 l 369 499 l 318 499 q 283 491 292 499 q 275 456 275 483 l 275 299 q 310 265 275 265 m 236 -162 l 236 17 l 406 17 l 406 -162 l 236 -162 z "},"ज़":{"ha":1011,"x_min":-28,"x_max":1039,"o":"m 1039 892 l 1039 735 l 956 735 l 956 0 l 719 0 l 719 499 l 622 499 l 622 285 q 573 148 622 188 q 399 108 524 108 l 279 108 q 105 148 154 108 q 56 285 56 188 l 56 656 l 292 656 l 292 299 q 326 265 292 265 l 351 265 q 386 299 386 265 l 386 656 l 719 656 l 719 735 l -28 735 l -28 892 l 1039 892 m 264 -162 l 264 17 l 433 17 l 433 -162 l 264 -162 z "},"ड़":{"ha":653,"x_min":-28,"x_max":681,"o":"m 565 513 l 315 513 q 283 485 283 513 l 283 453 q 315 425 283 425 l 403 425 q 555 390 513 425 q 597 276 597 356 l 597 149 q 555 35 597 69 q 403 0 513 0 l 233 0 q 81 35 124 0 q 39 149 39 69 l 39 221 l 275 221 l 275 171 q 299 143 275 143 l 329 143 q 361 171 361 143 l 361 254 q 329 282 361 282 l 242 282 q 90 317 132 282 q 47 431 47 351 l 47 507 q 90 621 47 586 q 242 656 132 656 l 329 656 l 329 735 l -28 735 l -28 892 l 681 892 l 681 735 l 565 735 l 565 513 m 235 -269 l 235 -90 l 404 -90 l 404 -269 l 235 -269 z "},"ढ़":{"ha":718,"x_min":-28,"x_max":746,"o":"m 622 499 l 326 499 q 292 465 292 499 l 292 190 q 326 157 292 157 l 406 157 q 440 190 440 157 l 440 232 q 406 265 440 265 l 344 265 l 344 422 l 453 422 q 627 383 578 422 q 676 246 676 343 l 676 176 q 627 40 676 79 q 453 0 578 0 l 279 0 q 105 40 154 0 q 56 176 56 79 l 56 507 q 98 621 56 586 q 250 656 140 656 l 386 656 l 386 735 l -28 735 l -28 892 l 746 892 l 746 735 l 622 735 l 622 499 m 281 -254 l 281 -75 l 450 -75 l 450 -254 l 281 -254 z "},"फ़":{"ha":1000,"x_min":-28,"x_max":1028,"o":"m 1028 735 l 632 735 l 632 633 q 706 656 653 656 l 790 656 q 927 615 882 656 q 972 479 972 574 l 972 257 q 930 143 972 178 q 778 108 888 108 l 689 108 l 689 251 l 704 251 q 736 279 736 251 l 736 465 q 704 499 736 499 l 664 499 q 632 465 632 499 l 632 0 l 396 0 l 396 131 q 322 108 375 108 l 238 108 q 101 149 146 108 q 56 285 56 190 l 56 735 l -28 735 l -28 892 l 1028 892 l 1028 735 m 396 299 l 396 735 l 292 735 l 292 299 q 324 265 292 265 l 364 265 q 396 299 396 265 m 121 -181 l 121 -1 l 290 -1 l 290 -181 l 121 -181 z "},"य़":{"ha":872,"x_min":-28,"x_max":900,"o":"m 900 892 l 900 735 l 817 735 l 817 0 l 581 0 l 581 131 q 513 108 558 108 l 279 108 q 109 149 163 108 q 56 285 56 189 l 56 544 l 229 544 q 261 572 261 544 l 261 688 q 251 724 261 714 q 214 735 242 735 l -28 735 l -28 892 l 900 892 m 581 313 l 581 735 l 467 735 q 486 674 486 711 l 486 550 q 446 428 486 468 q 299 388 406 388 l 292 388 l 292 299 q 324 265 292 265 l 533 265 q 571 276 561 265 q 581 313 581 286 m 281 -181 l 281 -1 l 450 -1 l 450 -181 l 281 -181 z "},"ॠ":{"ha":1439,"x_min":-28,"x_max":1488,"o":"m 749 735 l 749 390 l 854 390 q 846 425 846 406 l 846 479 q 895 616 846 576 q 1069 656 944 656 l 1181 656 q 1355 616 1306 656 q 1404 479 1404 576 l 1404 428 q 1355 291 1404 331 q 1181 251 1306 251 l 1114 251 q 1082 218 1082 251 l 1082 185 q 1114 151 1082 151 l 1178 151 l 1178 -6 l 1114 -6 q 1082 -39 1082 -6 l 1082 -72 q 1114 -106 1082 -106 l 1265 -106 l 1265 -262 l 1069 -262 q 899 -222 953 -262 q 846 -86 846 -182 l 846 -8 q 911 69 846 61 l 911 76 q 846 154 846 85 l 846 217 q 854 251 846 236 l 749 251 l 749 0 l 513 0 l 513 251 l 485 251 l 343 0 l 72 0 l 253 321 l 181 426 q 133 478 154 465 q 76 492 113 492 l 56 492 l 56 649 l 200 649 q 306 627 267 649 q 379 556 344 606 l 492 390 l 513 390 l 513 735 l -28 735 l -28 892 l 1488 892 l 1488 735 l 749 735 m 1082 488 l 1082 418 q 1114 390 1082 390 l 1136 390 q 1168 418 1168 390 l 1168 488 q 1136 515 1168 515 l 1114 515 q 1082 488 1082 515 z "},"ॡ":{"ha":1028,"x_min":-28,"x_max":1056,"o":"m 972 111 l 892 111 q 860 78 860 111 l 860 44 q 892 11 860 11 l 956 11 l 956 -146 l 892 -146 q 860 -179 860 -146 l 860 -212 q 892 -246 860 -246 l 1043 -246 l 1043 -403 l 847 -403 q 677 -362 731 -403 q 624 -226 624 -322 l 624 -149 q 689 -71 624 -79 l 689 -64 q 624 14 624 -56 l 624 133 q 736 264 624 243 l 736 499 l 664 499 q 632 465 632 499 l 632 289 l 396 289 l 396 465 q 364 499 396 499 l 324 499 q 292 465 292 499 l 292 185 q 324 157 292 157 l 339 157 l 339 0 l 250 0 q 98 35 140 0 q 56 149 56 69 l 56 479 q 101 615 56 574 q 238 656 146 656 l 433 656 q 511 590 503 656 l 518 590 q 596 656 526 656 l 736 656 l 736 735 l -28 735 l -28 892 l 1056 892 l 1056 735 l 972 735 l 972 111 z "},"।":{"ha":569,"x_min":167,"x_max":403,"o":"m 403 936 l 403 -44 l 167 -44 l 167 936 l 403 936 z "},"॥":{"ha":903,"x_min":167,"x_max":736,"o":"m 736 936 l 736 -44 l 500 -44 l 500 936 l 736 936 m 403 936 l 403 -44 l 167 -44 l 167 936 l 403 936 z "},"०":{"ha":696,"x_min":51,"x_max":644,"o":"m 401 204 l 401 688 q 367 718 401 718 l 329 718 q 294 688 294 718 l 294 204 q 329 174 294 174 l 367 174 q 401 204 401 174 m 644 719 l 644 172 q 440 0 644 0 l 256 0 q 51 172 51 0 l 51 719 q 256 892 51 892 l 440 892 q 644 719 644 892 z "},"१":{"ha":449,"x_min":25,"x_max":393,"o":"m 393 892 l 393 0 l 150 0 l 150 718 l 25 718 l 25 892 l 393 892 z "},"२":{"ha":651,"x_min":32,"x_max":611,"o":"m 275 688 l 275 586 l 32 586 l 32 719 q 236 892 32 892 l 404 892 q 611 719 611 892 l 611 592 q 588 473 611 522 q 514 367 565 424 l 342 174 l 611 174 l 611 0 l 39 0 l 39 158 l 303 442 q 358 516 344 485 q 372 593 372 547 l 372 688 q 338 718 372 718 l 310 718 q 275 688 275 718 z "},"३":{"ha":663,"x_min":35,"x_max":614,"o":"m 278 688 l 278 600 l 35 600 l 35 719 q 239 892 35 892 l 410 892 q 614 719 614 892 l 614 611 q 547 454 614 490 q 600 403 586 438 q 614 311 614 369 l 614 172 q 410 0 614 0 l 239 0 q 35 172 35 0 l 35 292 l 278 292 l 278 204 q 313 174 278 174 l 340 174 q 375 204 375 174 l 375 342 q 340 372 375 372 l 228 372 l 228 532 l 340 532 q 375 563 375 532 l 375 688 q 340 718 375 718 l 313 718 q 278 688 278 718 z "},"४":{"ha":704,"x_min":14,"x_max":704,"o":"m 704 336 l 704 160 l 610 160 l 610 0 l 382 0 l 382 160 l 14 160 l 14 375 l 349 892 l 593 892 l 235 336 l 382 336 l 382 513 l 610 513 l 610 336 l 704 336 z "},"५":{"ha":692,"x_min":56,"x_max":650,"o":"m 306 588 l 446 588 q 650 415 650 588 l 650 172 q 446 0 650 0 l 260 0 q 56 172 56 0 l 56 313 l 299 313 l 299 204 q 333 174 299 174 l 376 174 q 411 204 411 174 l 411 383 q 376 414 411 414 l 67 414 l 67 892 l 636 892 l 636 718 l 306 718 l 306 588 z "},"६":{"ha":686,"x_min":51,"x_max":644,"o":"m 288 535 l 440 535 q 644 363 644 535 l 644 172 q 440 0 644 0 l 256 0 q 51 172 51 0 l 51 719 q 256 892 51 892 l 426 892 q 631 719 631 892 l 631 619 l 394 619 l 394 688 q 360 718 394 718 l 322 718 q 288 688 288 718 l 288 535 m 408 204 l 408 338 q 374 368 408 368 l 288 368 l 288 204 q 322 174 288 174 l 374 174 q 408 204 408 174 z "},"७":{"ha":586,"x_min":14,"x_max":579,"o":"m 579 892 l 579 760 l 308 0 l 57 0 l 319 704 l 14 704 l 14 892 l 579 892 z "},"८":{"ha":692,"x_min":49,"x_max":643,"o":"m 643 719 l 643 611 q 576 454 643 490 q 629 403 615 438 q 643 311 643 369 l 643 172 q 439 0 643 0 l 253 0 q 49 172 49 0 l 49 311 q 114 454 49 425 q 49 611 49 490 l 49 719 q 253 892 49 892 l 439 892 q 643 719 643 892 m 411 201 l 411 349 q 376 379 411 379 l 315 379 q 281 349 281 379 l 281 201 q 315 171 281 171 l 376 171 q 411 201 411 171 m 411 556 l 411 690 q 376 721 411 721 l 315 721 q 281 690 281 721 l 281 556 q 315 525 281 525 l 376 525 q 411 556 411 525 z "},"९":{"ha":686,"x_min":42,"x_max":635,"o":"m 246 892 l 431 892 q 635 719 635 892 l 635 172 q 431 0 635 0 l 257 0 q 53 172 53 0 l 53 265 l 289 265 l 289 204 q 324 174 289 174 l 364 174 q 399 204 399 174 l 399 343 l 246 343 q 42 515 42 343 l 42 719 q 246 892 42 892 m 313 503 l 399 503 l 399 688 q 364 718 399 718 l 313 718 q 278 688 278 718 l 278 533 q 313 503 278 503 z "},"॰":{"ha":551,"x_min":69,"x_max":482,"o":"m 275 521 q 263 521 275 521 q 242 505 251 521 q 232 444 232 489 q 242 382 232 399 q 275 365 253 365 q 308 382 297 365 q 319 444 319 399 q 309 505 319 489 q 275 521 299 521 m 124 289 q 97 315 124 289 q 69 443 69 342 q 124 597 69 544 q 275 650 179 650 q 426 597 371 650 q 482 443 482 544 q 426 289 482 342 q 275 236 371 236 q 124 289 179 236 z "},"ॲ":{"ha":1014,"x_min":71,"x_max":1211,"o":"m 1017 1232 l 1211 1232 l 1211 1103 q 1163 999 1211 1032 q 1000 965 1115 965 l 728 965 q 565 999 613 965 q 517 1103 517 1032 l 517 1232 l 711 1232 l 711 1132 q 720 1103 711 1111 q 750 1096 729 1096 l 978 1096 q 1008 1103 999 1096 q 1017 1132 1017 1111 l 1017 1232 m 1042 892 l 1042 735 l 958 735 l 958 0 l 722 0 l 722 354 l 629 354 l 629 271 q 586 149 629 190 q 435 108 543 108 l 265 108 q 114 149 157 108 q 71 271 71 190 l 71 385 l 307 385 l 307 293 q 339 265 307 265 l 361 265 q 393 293 393 265 l 393 392 q 361 425 393 425 l 315 425 l 315 582 l 361 582 q 393 615 393 582 l 393 714 q 361 742 393 742 l 339 742 q 307 714 307 742 l 307 636 l 71 636 l 71 736 q 114 858 71 817 q 265 899 157 899 l 435 899 q 586 858 543 899 q 629 736 629 817 l 629 585 q 583 511 629 526 l 722 511 l 722 892 l 1042 892 z "},"​":{"ha":0,"x_min":0,"x_max":0,"o":""},"‌":{"ha":0,"x_min":-32,"x_max":33,"o":"m 33 -319 l -32 -319 l -32 1126 l 33 1126 l 33 -319 z "},"‍":{"ha":0,"x_min":-176,"x_max":179,"o":"m 33 -319 l -32 -319 l -32 882 l -128 781 l -174 826 l -44 956 l -176 1088 l -131 1133 l 1 1001 l 135 1133 l 179 1089 l 46 956 l 179 824 l 133 778 l 33 882 l 33 -319 z "},"–":{"ha":843,"x_min":64,"x_max":632,"o":"m 64 340 l 64 500 l 632 500 l 632 340 l 64 340 z "},"—":{"ha":1040,"x_min":64,"x_max":964,"o":"m 64 340 l 64 500 l 964 500 l 964 340 l 64 340 z "},"‘":{"ha":353,"x_min":56,"x_max":297,"o":"m 297 457 l 56 457 l 56 582 l 232 892 l 297 892 l 297 457 z "},"’":{"ha":353,"x_min":56,"x_max":297,"o":"m 56 892 l 297 892 l 297 767 l 121 457 l 56 457 l 56 892 z "},"‚":{"ha":350,"x_min":56,"x_max":294,"o":"m 56 228 l 294 228 l 294 103 l 128 -207 l 56 -207 l 56 228 z "},"“":{"ha":644,"x_min":56,"x_max":589,"o":"m 294 457 l 56 457 l 56 582 l 232 892 l 294 892 l 294 457 m 589 457 l 350 457 l 350 582 l 526 892 l 589 892 l 589 457 z "},"”":{"ha":644,"x_min":56,"x_max":589,"o":"m 350 892 l 589 892 l 589 767 l 413 457 l 350 457 l 350 892 m 56 892 l 294 892 l 294 767 l 118 457 l 56 457 l 56 892 z "},"„":{"ha":644,"x_min":56,"x_max":589,"o":"m 350 228 l 589 228 l 589 103 l 413 -207 l 350 -207 l 350 228 m 56 228 l 294 228 l 294 103 l 118 -207 l 56 -207 l 56 228 z "},"†":{"ha":631,"x_min":14,"x_max":617,"o":"m 617 681 l 617 521 l 436 521 l 436 -151 l 193 -151 l 193 521 l 14 521 l 14 681 l 193 681 l 193 892 l 436 892 l 436 681 l 617 681 z "},"‡":{"ha":672,"x_min":35,"x_max":638,"o":"m 638 521 l 457 521 l 457 181 l 638 181 l 638 21 l 457 21 l 457 -190 l 214 -190 l 214 21 l 35 21 l 35 181 l 214 181 l 214 521 l 35 521 l 35 681 l 214 681 l 214 892 l 457 892 l 457 681 l 638 681 l 638 521 z "},"•":{"ha":550,"x_min":69,"x_max":481,"o":"m 130 301 q 100 331 130 301 q 69 446 69 361 q 130 591 69 531 q 275 651 190 651 q 420 591 360 651 q 481 446 481 531 q 420 301 481 361 q 275 240 360 240 q 130 301 190 240 z "},"…":{"ha":1044,"x_min":56,"x_max":989,"o":"m 750 0 l 750 228 l 989 228 l 989 0 l 750 0 m 403 0 l 403 228 l 642 228 l 642 0 l 403 0 m 56 0 l 56 228 l 294 228 l 294 0 l 56 0 z "},"‰":{"ha":1764,"x_min":35,"x_max":1729,"o":"m 1533 167 l 1533 365 q 1506 390 1533 390 l 1483 390 q 1456 365 1456 390 l 1456 167 q 1483 143 1456 143 l 1506 143 q 1533 167 1533 143 m 1729 393 l 1729 139 q 1565 0 1729 0 l 1424 0 q 1260 139 1260 0 l 1260 393 q 1424 532 1260 532 l 1565 532 q 1729 393 1729 532 m 789 892 l 965 892 l 461 0 l 288 0 l 789 892 m 1017 167 l 1017 365 q 989 390 1017 390 l 967 390 q 939 365 939 390 l 939 167 q 967 143 939 143 l 989 143 q 1017 167 1017 143 m 308 526 l 308 725 q 281 750 308 750 l 258 750 q 231 725 231 750 l 231 526 q 258 503 231 503 l 281 503 q 308 526 308 503 m 1213 393 l 1213 139 q 1049 0 1213 0 l 907 0 q 743 139 743 0 l 743 393 q 907 532 743 532 l 1049 532 q 1213 393 1213 532 m 504 753 l 504 499 q 340 360 504 360 l 199 360 q 35 499 35 360 l 35 753 q 199 892 35 892 l 340 892 q 504 753 504 892 z "},"‹":{"ha":415,"x_min":21,"x_max":408,"o":"m 174 133 l 21 346 l 174 556 l 408 556 l 260 346 l 408 133 l 174 133 z "},"›":{"ha":415,"x_min":21,"x_max":408,"o":"m 408 346 l 256 133 l 21 133 l 169 346 l 21 556 l 256 556 l 408 346 z "},"⁄":{"ha":571,"x_min":-28,"x_max":599,"o":"m 399 975 l 599 975 l 172 -83 l -28 -83 l 399 975 z "},"€":{"ha":717,"x_min":21,"x_max":682,"o":"m 682 558 l 439 558 l 439 701 q 404 732 439 732 l 356 732 q 321 701 321 732 l 321 601 l 403 601 l 403 468 l 321 468 l 321 424 l 403 424 l 403 290 l 321 290 l 321 190 q 356 160 321 160 l 404 160 q 439 190 439 160 l 439 328 l 682 328 l 682 172 q 478 0 682 0 l 282 0 q 78 172 78 0 l 78 290 l 21 290 l 21 424 l 78 424 l 78 468 l 21 468 l 21 601 l 78 601 l 78 719 q 282 892 78 892 l 478 892 q 682 719 682 892 l 682 558 z "},"₹":{"ha":633,"x_min":56,"x_max":578,"o":"m 578 892 l 578 754 l 467 754 q 476 678 476 733 l 476 672 l 578 672 l 578 535 l 476 535 l 476 472 q 438 344 476 385 q 304 297 399 304 l 504 0 l 254 0 l 56 296 l 56 453 l 208 453 q 240 486 240 453 l 240 535 l 56 535 l 56 672 l 240 672 l 240 724 q 206 754 240 754 l 56 754 l 56 892 l 578 892 z "},"™":{"ha":1015,"x_min":14,"x_max":974,"o":"m 974 892 l 974 431 l 828 431 l 828 654 l 774 490 l 658 490 l 606 651 l 606 431 l 460 431 l 460 892 l 626 892 l 717 636 l 807 892 l 974 892 m 14 760 l 14 892 l 422 892 l 422 760 l 301 760 l 301 431 l 133 431 l 133 760 l 14 760 z "},"Ω":{"ha":739,"x_min":21,"x_max":717,"o":"m 717 174 l 717 0 l 406 0 l 406 174 l 413 174 q 433 218 433 174 l 433 688 q 399 718 433 718 l 340 718 q 306 688 306 718 l 306 218 q 326 174 306 174 l 333 174 l 333 0 l 21 0 l 21 174 l 115 174 q 63 297 63 211 l 63 719 q 267 892 63 892 l 472 892 q 676 719 676 892 l 676 297 q 624 174 676 211 l 717 174 z "},"∏":{"ha":749,"x_min":0,"x_max":693,"o":"m 692 808 l 693 808 l 693 0 l 450 0 l 450 732 l 317 732 l 317 172 q 113 0 317 0 l 0 0 l 0 174 l 46 174 q 81 204 81 174 l 81 892 l 692 892 l 692 808 z "},"−":{"ha":925,"x_min":21,"x_max":692,"o":"m 21 357 l 21 531 l 692 531 l 692 357 l 21 357 z "},"∕":{"ha":571,"x_min":-28,"x_max":599,"o":"m 399 975 l 599 975 l 172 -83 l -28 -83 l 399 975 z "},"∙":{"ha":350,"x_min":56,"x_max":294,"o":"m 56 332 l 56 560 l 294 560 l 294 332 l 56 332 z "},"∞":{"ha":843,"x_min":-18,"x_max":860,"o":"m 585 738 l 656 738 q 860 565 860 738 l 860 400 q 656 228 860 228 l 611 228 q 510 250 547 228 q 422 340 472 271 l 415 329 q 345 246 379 264 q 235 228 311 228 l 186 228 q -18 400 -18 228 l -18 565 q 186 738 -18 738 l 240 738 q 333 710 297 738 q 413 614 367 683 q 488 716 458 694 q 585 738 517 738 m 192 374 l 235 374 q 299 414 275 374 l 336 481 l 301 535 q 228 592 265 592 l 192 592 q 159 583 167 592 q 151 547 151 574 l 151 418 q 158 383 151 392 q 192 374 165 374 m 690 418 l 690 547 q 683 583 690 574 q 650 592 675 592 l 607 592 l 607 593 l 593 593 q 542 553 564 593 l 497 475 l 528 429 q 599 374 564 374 l 650 374 q 683 383 676 374 q 690 418 690 392 z "},"∫":{"ha":671,"x_min":122,"x_max":575,"o":"m 467 -33 q 263 -206 467 -206 l 122 -206 l 122 -32 l 196 -32 q 231 -1 226 -32 l 231 785 q 435 957 231 957 l 575 957 l 575 783 l 501 783 q 467 753 471 783 l 467 -33 z "},"≈":{"ha":782,"x_min":35,"x_max":747,"o":"m 500 193 q 383 233 446 193 q 292 272 319 272 q 258 263 265 272 q 250 228 250 253 l 250 193 l 35 193 l 35 283 q 71 389 35 356 q 189 422 107 422 l 282 422 q 446 364 364 422 q 495 343 474 343 q 524 353 517 343 q 532 388 532 363 l 532 422 l 747 422 l 747 332 q 711 226 747 260 q 593 193 675 193 l 500 193 m 500 465 q 383 505 446 465 q 292 544 319 544 q 258 535 265 544 q 250 500 250 525 l 250 465 l 35 465 l 35 556 q 71 661 35 628 q 189 694 107 694 l 282 694 q 446 636 364 694 q 495 615 474 615 q 524 625 517 615 q 532 660 532 635 l 532 694 l 747 694 l 747 604 q 711 499 747 532 q 593 465 675 465 l 500 465 z "},"≠":{"ha":740,"x_min":35,"x_max":706,"o":"m 706 501 l 478 501 l 414 386 l 706 386 l 706 207 l 315 207 l 269 124 l 118 124 l 164 207 l 35 207 l 35 386 l 263 386 l 326 501 l 35 501 l 35 681 l 425 681 l 471 764 l 622 764 l 576 681 l 706 681 l 706 501 z "},"≤":{"ha":740,"x_min":35,"x_max":706,"o":"m 706 357 l 706 193 l 35 193 l 35 357 l 706 357 m 706 636 l 199 596 l 706 553 l 706 375 l 35 494 l 35 703 l 706 811 l 706 636 z "},"≥":{"ha":740,"x_min":35,"x_max":706,"o":"m 35 193 l 35 357 l 706 357 l 706 193 l 35 193 m 542 596 l 35 636 l 35 811 l 706 703 l 706 494 l 35 375 l 35 553 l 542 596 z "},"◊":{"ha":971,"x_min":93,"x_max":847,"o":"m 586 892 l 847 449 l 586 1 l 346 1 l 93 449 l 346 892 l 586 892 m 465 174 l 615 449 l 465 718 l 325 449 l 465 174 z "},"◌":{"ha":578,"x_min":99,"x_max":479,"o":"m 243 210 l 335 210 l 335 108 l 243 108 l 243 210 m 243 674 l 335 674 l 335 572 l 243 572 l 243 674 m 388 572 l 388 674 q 479 572 479 674 l 388 572 m 388 519 l 479 519 l 479 418 l 388 418 l 388 519 m 388 364 l 479 364 l 479 263 l 388 263 l 388 364 m 388 210 l 479 210 q 454 138 479 168 q 388 108 429 108 l 388 210 m 190 572 l 99 572 q 124 647 99 619 q 190 674 149 674 l 190 572 m 99 519 l 190 519 l 190 418 l 99 418 l 99 519 m 99 364 l 190 364 l 190 263 l 99 263 l 99 364 m 190 210 l 190 108 q 124 136 150 108 q 99 210 99 164 l 190 210 z "},"":{"ha":694,"x_min":231,"x_max":463,"o":"m 231 -64 l 463 -64 l 463 -185 l 303 -415 l 231 -415 l 231 -64 z "},"ﬁ":{"ha":708,"x_min":14,"x_max":653,"o":"m 421 929 l 653 929 l 653 765 l 421 765 l 421 929 m 653 693 l 653 0 l 421 0 l 421 519 l 317 519 l 317 0 l 85 0 l 85 519 l 14 519 l 14 693 l 85 693 l 85 757 q 289 929 85 929 l 374 929 l 374 765 l 351 765 q 317 735 317 765 l 317 693 l 653 693 z "},"ﬂ":{"ha":708,"x_min":14,"x_max":653,"o":"m 422 929 l 653 929 l 653 0 l 422 0 l 422 519 l 317 519 l 317 0 l 85 0 l 85 519 l 14 519 l 14 693 l 85 693 l 85 757 q 289 929 85 929 l 374 929 l 374 765 l 351 765 q 317 735 317 765 l 317 693 l 422 693 l 422 929 z "}}}
